G75*
G70*
%OFA0B0*%
%FSLAX24Y24*%
%IPPOS*%
%LPD*%
%AMOC8*
5,1,8,0,0,1.08239X$1,22.5*
%
%ADD10C,0.0000*%
%ADD11C,0.0670*%
%ADD12OC8,0.1221*%
%ADD13OC8,0.0985*%
%ADD14R,0.0670X0.0178*%
%ADD15R,0.0709X0.0532*%
%ADD16R,0.0532X0.0709*%
%ADD17C,0.1300*%
%ADD18OC8,0.1024*%
%ADD19OC8,0.0827*%
%ADD20R,0.0276X0.0906*%
%ADD21R,0.0591X0.0434*%
%ADD22OC8,0.0749*%
%ADD23OC8,0.0906*%
%ADD24R,0.0611X0.1221*%
%ADD25R,0.0512X0.0257*%
%ADD26R,0.0591X0.0591*%
%ADD27OC8,0.0788*%
%ADD28C,0.0473*%
%ADD29OC8,0.0740*%
%ADD30C,0.0984*%
D10*
X003683Y003275D02*
X004076Y002881D01*
X032423Y002881D01*
X032817Y003275D01*
X032817Y030441D01*
X032423Y030834D01*
X004076Y030834D01*
X003683Y030441D01*
X003683Y003275D01*
X004868Y006500D02*
X004870Y006535D01*
X004876Y006570D01*
X004886Y006604D01*
X004899Y006637D01*
X004916Y006668D01*
X004937Y006696D01*
X004960Y006723D01*
X004987Y006746D01*
X005015Y006767D01*
X005046Y006784D01*
X005079Y006797D01*
X005113Y006807D01*
X005148Y006813D01*
X005183Y006815D01*
X005218Y006813D01*
X005253Y006807D01*
X005287Y006797D01*
X005320Y006784D01*
X005351Y006767D01*
X005379Y006746D01*
X005406Y006723D01*
X005429Y006696D01*
X005450Y006668D01*
X005467Y006637D01*
X005480Y006604D01*
X005490Y006570D01*
X005496Y006535D01*
X005498Y006500D01*
X005496Y006465D01*
X005490Y006430D01*
X005480Y006396D01*
X005467Y006363D01*
X005450Y006332D01*
X005429Y006304D01*
X005406Y006277D01*
X005379Y006254D01*
X005351Y006233D01*
X005320Y006216D01*
X005287Y006203D01*
X005253Y006193D01*
X005218Y006187D01*
X005183Y006185D01*
X005148Y006187D01*
X005113Y006193D01*
X005079Y006203D01*
X005046Y006216D01*
X005015Y006233D01*
X004987Y006254D01*
X004960Y006277D01*
X004937Y006304D01*
X004916Y006332D01*
X004899Y006363D01*
X004886Y006396D01*
X004876Y006430D01*
X004870Y006465D01*
X004868Y006500D01*
X006868Y009500D02*
X006870Y009535D01*
X006876Y009570D01*
X006886Y009604D01*
X006899Y009637D01*
X006916Y009668D01*
X006937Y009696D01*
X006960Y009723D01*
X006987Y009746D01*
X007015Y009767D01*
X007046Y009784D01*
X007079Y009797D01*
X007113Y009807D01*
X007148Y009813D01*
X007183Y009815D01*
X007218Y009813D01*
X007253Y009807D01*
X007287Y009797D01*
X007320Y009784D01*
X007351Y009767D01*
X007379Y009746D01*
X007406Y009723D01*
X007429Y009696D01*
X007450Y009668D01*
X007467Y009637D01*
X007480Y009604D01*
X007490Y009570D01*
X007496Y009535D01*
X007498Y009500D01*
X007496Y009465D01*
X007490Y009430D01*
X007480Y009396D01*
X007467Y009363D01*
X007450Y009332D01*
X007429Y009304D01*
X007406Y009277D01*
X007379Y009254D01*
X007351Y009233D01*
X007320Y009216D01*
X007287Y009203D01*
X007253Y009193D01*
X007218Y009187D01*
X007183Y009185D01*
X007148Y009187D01*
X007113Y009193D01*
X007079Y009203D01*
X007046Y009216D01*
X007015Y009233D01*
X006987Y009254D01*
X006960Y009277D01*
X006937Y009304D01*
X006916Y009332D01*
X006899Y009363D01*
X006886Y009396D01*
X006876Y009430D01*
X006870Y009465D01*
X006868Y009500D01*
X004868Y015948D02*
X004870Y015983D01*
X004876Y016018D01*
X004886Y016052D01*
X004899Y016085D01*
X004916Y016116D01*
X004937Y016144D01*
X004960Y016171D01*
X004987Y016194D01*
X005015Y016215D01*
X005046Y016232D01*
X005079Y016245D01*
X005113Y016255D01*
X005148Y016261D01*
X005183Y016263D01*
X005218Y016261D01*
X005253Y016255D01*
X005287Y016245D01*
X005320Y016232D01*
X005351Y016215D01*
X005379Y016194D01*
X005406Y016171D01*
X005429Y016144D01*
X005450Y016116D01*
X005467Y016085D01*
X005480Y016052D01*
X005490Y016018D01*
X005496Y015983D01*
X005498Y015948D01*
X005496Y015913D01*
X005490Y015878D01*
X005480Y015844D01*
X005467Y015811D01*
X005450Y015780D01*
X005429Y015752D01*
X005406Y015725D01*
X005379Y015702D01*
X005351Y015681D01*
X005320Y015664D01*
X005287Y015651D01*
X005253Y015641D01*
X005218Y015635D01*
X005183Y015633D01*
X005148Y015635D01*
X005113Y015641D01*
X005079Y015651D01*
X005046Y015664D01*
X005015Y015681D01*
X004987Y015702D01*
X004960Y015725D01*
X004937Y015752D01*
X004916Y015780D01*
X004899Y015811D01*
X004886Y015844D01*
X004876Y015878D01*
X004870Y015913D01*
X004868Y015948D01*
X006868Y018948D02*
X006870Y018983D01*
X006876Y019018D01*
X006886Y019052D01*
X006899Y019085D01*
X006916Y019116D01*
X006937Y019144D01*
X006960Y019171D01*
X006987Y019194D01*
X007015Y019215D01*
X007046Y019232D01*
X007079Y019245D01*
X007113Y019255D01*
X007148Y019261D01*
X007183Y019263D01*
X007218Y019261D01*
X007253Y019255D01*
X007287Y019245D01*
X007320Y019232D01*
X007351Y019215D01*
X007379Y019194D01*
X007406Y019171D01*
X007429Y019144D01*
X007450Y019116D01*
X007467Y019085D01*
X007480Y019052D01*
X007490Y019018D01*
X007496Y018983D01*
X007498Y018948D01*
X007496Y018913D01*
X007490Y018878D01*
X007480Y018844D01*
X007467Y018811D01*
X007450Y018780D01*
X007429Y018752D01*
X007406Y018725D01*
X007379Y018702D01*
X007351Y018681D01*
X007320Y018664D01*
X007287Y018651D01*
X007253Y018641D01*
X007218Y018635D01*
X007183Y018633D01*
X007148Y018635D01*
X007113Y018641D01*
X007079Y018651D01*
X007046Y018664D01*
X007015Y018681D01*
X006987Y018702D01*
X006960Y018725D01*
X006937Y018752D01*
X006916Y018780D01*
X006899Y018811D01*
X006886Y018844D01*
X006876Y018878D01*
X006870Y018913D01*
X006868Y018948D01*
X017423Y015874D02*
X017425Y015924D01*
X017431Y015974D01*
X017441Y016023D01*
X017455Y016071D01*
X017472Y016118D01*
X017493Y016163D01*
X017518Y016207D01*
X017546Y016248D01*
X017578Y016287D01*
X017612Y016324D01*
X017649Y016358D01*
X017689Y016388D01*
X017731Y016415D01*
X017775Y016439D01*
X017821Y016460D01*
X017868Y016476D01*
X017916Y016489D01*
X017966Y016498D01*
X018015Y016503D01*
X018066Y016504D01*
X018116Y016501D01*
X018165Y016494D01*
X018214Y016483D01*
X018262Y016468D01*
X018308Y016450D01*
X018353Y016428D01*
X018396Y016402D01*
X018437Y016373D01*
X018476Y016341D01*
X018512Y016306D01*
X018544Y016268D01*
X018574Y016228D01*
X018601Y016185D01*
X018624Y016141D01*
X018643Y016095D01*
X018659Y016047D01*
X018671Y015998D01*
X018679Y015949D01*
X018683Y015899D01*
X018683Y015849D01*
X018679Y015799D01*
X018671Y015750D01*
X018659Y015701D01*
X018643Y015653D01*
X018624Y015607D01*
X018601Y015563D01*
X018574Y015520D01*
X018544Y015480D01*
X018512Y015442D01*
X018476Y015407D01*
X018437Y015375D01*
X018396Y015346D01*
X018353Y015320D01*
X018308Y015298D01*
X018262Y015280D01*
X018214Y015265D01*
X018165Y015254D01*
X018116Y015247D01*
X018066Y015244D01*
X018015Y015245D01*
X017966Y015250D01*
X017916Y015259D01*
X017868Y015272D01*
X017821Y015288D01*
X017775Y015309D01*
X017731Y015333D01*
X017689Y015360D01*
X017649Y015390D01*
X017612Y015424D01*
X017578Y015461D01*
X017546Y015500D01*
X017518Y015541D01*
X017493Y015585D01*
X017472Y015630D01*
X017455Y015677D01*
X017441Y015725D01*
X017431Y015774D01*
X017425Y015824D01*
X017423Y015874D01*
X023328Y015874D02*
X023330Y015924D01*
X023336Y015974D01*
X023346Y016023D01*
X023360Y016071D01*
X023377Y016118D01*
X023398Y016163D01*
X023423Y016207D01*
X023451Y016248D01*
X023483Y016287D01*
X023517Y016324D01*
X023554Y016358D01*
X023594Y016388D01*
X023636Y016415D01*
X023680Y016439D01*
X023726Y016460D01*
X023773Y016476D01*
X023821Y016489D01*
X023871Y016498D01*
X023920Y016503D01*
X023971Y016504D01*
X024021Y016501D01*
X024070Y016494D01*
X024119Y016483D01*
X024167Y016468D01*
X024213Y016450D01*
X024258Y016428D01*
X024301Y016402D01*
X024342Y016373D01*
X024381Y016341D01*
X024417Y016306D01*
X024449Y016268D01*
X024479Y016228D01*
X024506Y016185D01*
X024529Y016141D01*
X024548Y016095D01*
X024564Y016047D01*
X024576Y015998D01*
X024584Y015949D01*
X024588Y015899D01*
X024588Y015849D01*
X024584Y015799D01*
X024576Y015750D01*
X024564Y015701D01*
X024548Y015653D01*
X024529Y015607D01*
X024506Y015563D01*
X024479Y015520D01*
X024449Y015480D01*
X024417Y015442D01*
X024381Y015407D01*
X024342Y015375D01*
X024301Y015346D01*
X024258Y015320D01*
X024213Y015298D01*
X024167Y015280D01*
X024119Y015265D01*
X024070Y015254D01*
X024021Y015247D01*
X023971Y015244D01*
X023920Y015245D01*
X023871Y015250D01*
X023821Y015259D01*
X023773Y015272D01*
X023726Y015288D01*
X023680Y015309D01*
X023636Y015333D01*
X023594Y015360D01*
X023554Y015390D01*
X023517Y015424D01*
X023483Y015461D01*
X023451Y015500D01*
X023423Y015541D01*
X023398Y015585D01*
X023377Y015630D01*
X023360Y015677D01*
X023346Y015725D01*
X023336Y015774D01*
X023330Y015824D01*
X023328Y015874D01*
X032206Y011649D02*
X032208Y011678D01*
X032214Y011706D01*
X032223Y011734D01*
X032236Y011760D01*
X032253Y011783D01*
X032272Y011805D01*
X032294Y011824D01*
X032319Y011839D01*
X032345Y011852D01*
X032373Y011860D01*
X032401Y011865D01*
X032430Y011866D01*
X032459Y011863D01*
X032487Y011856D01*
X032514Y011846D01*
X032540Y011832D01*
X032563Y011815D01*
X032584Y011795D01*
X032602Y011772D01*
X032617Y011747D01*
X032628Y011720D01*
X032636Y011692D01*
X032640Y011663D01*
X032640Y011635D01*
X032636Y011606D01*
X032628Y011578D01*
X032617Y011551D01*
X032602Y011526D01*
X032584Y011503D01*
X032563Y011483D01*
X032540Y011466D01*
X032514Y011452D01*
X032487Y011442D01*
X032459Y011435D01*
X032430Y011432D01*
X032401Y011433D01*
X032373Y011438D01*
X032345Y011446D01*
X032319Y011459D01*
X032294Y011474D01*
X032272Y011493D01*
X032253Y011515D01*
X032236Y011538D01*
X032223Y011564D01*
X032214Y011592D01*
X032208Y011620D01*
X032206Y011649D01*
X032206Y010649D02*
X032208Y010678D01*
X032214Y010706D01*
X032223Y010734D01*
X032236Y010760D01*
X032253Y010783D01*
X032272Y010805D01*
X032294Y010824D01*
X032319Y010839D01*
X032345Y010852D01*
X032373Y010860D01*
X032401Y010865D01*
X032430Y010866D01*
X032459Y010863D01*
X032487Y010856D01*
X032514Y010846D01*
X032540Y010832D01*
X032563Y010815D01*
X032584Y010795D01*
X032602Y010772D01*
X032617Y010747D01*
X032628Y010720D01*
X032636Y010692D01*
X032640Y010663D01*
X032640Y010635D01*
X032636Y010606D01*
X032628Y010578D01*
X032617Y010551D01*
X032602Y010526D01*
X032584Y010503D01*
X032563Y010483D01*
X032540Y010466D01*
X032514Y010452D01*
X032487Y010442D01*
X032459Y010435D01*
X032430Y010432D01*
X032401Y010433D01*
X032373Y010438D01*
X032345Y010446D01*
X032319Y010459D01*
X032294Y010474D01*
X032272Y010493D01*
X032253Y010515D01*
X032236Y010538D01*
X032223Y010564D01*
X032214Y010592D01*
X032208Y010620D01*
X032206Y010649D01*
D11*
X007183Y009500D03*
X005183Y006500D03*
X005183Y015948D03*
X007183Y018948D03*
D12*
X008933Y018948D03*
X008683Y015948D03*
X008933Y009500D03*
X008683Y006500D03*
X007718Y023295D03*
X010179Y023295D03*
X005257Y023295D03*
X005257Y029712D03*
X007718Y029712D03*
X010179Y029712D03*
D13*
X010433Y017448D03*
X010433Y008000D03*
X028565Y014673D03*
X028565Y018649D03*
D14*
X014628Y013689D03*
X014628Y013433D03*
X014628Y013177D03*
X014628Y012921D03*
X014628Y012665D03*
X014628Y012409D03*
X014628Y012153D03*
X012423Y012153D03*
X012423Y012409D03*
X012423Y012665D03*
X012423Y012921D03*
X012423Y013177D03*
X012423Y013433D03*
X012423Y013689D03*
D15*
X012147Y014811D03*
X011163Y014811D03*
X010179Y014811D03*
X010179Y016149D03*
X011163Y016149D03*
X012147Y016149D03*
X016084Y013000D03*
X016084Y011661D03*
X011557Y011031D03*
X010572Y011031D03*
X010572Y009693D03*
X011557Y009693D03*
X010376Y006700D03*
X010376Y005362D03*
X007226Y006543D03*
X007226Y007881D03*
X007226Y016189D03*
X007226Y017527D03*
X016084Y024063D03*
X016084Y025401D03*
X029864Y020086D03*
X030848Y020086D03*
X030848Y018748D03*
X029864Y018748D03*
X029864Y014574D03*
X030848Y014574D03*
X030848Y013236D03*
X029864Y013236D03*
X021399Y009653D03*
X021399Y008315D03*
D16*
X020494Y009574D03*
X019155Y009574D03*
X018328Y009574D03*
X018328Y008590D03*
X018328Y007606D03*
X016990Y007606D03*
X016990Y008590D03*
X016990Y009574D03*
X014194Y011149D03*
X012856Y011149D03*
X014628Y006425D03*
X015966Y006425D03*
X025848Y008393D03*
X027187Y008393D03*
X028998Y010756D03*
X030336Y010756D03*
X023643Y019417D03*
X022305Y019417D03*
X021478Y019417D03*
X021478Y020401D03*
X020139Y020401D03*
X020139Y019417D03*
X018525Y021385D03*
X018525Y022370D03*
X019352Y022370D03*
X020691Y022370D03*
X017187Y022370D03*
X017187Y021385D03*
X016596Y027094D03*
X016596Y028078D03*
X017935Y028078D03*
X017935Y027094D03*
X018761Y027094D03*
X020100Y027094D03*
X026242Y022763D03*
X027580Y022763D03*
X027580Y021385D03*
X026242Y021385D03*
D17*
X023958Y015874D03*
X018053Y015874D03*
D18*
X018151Y005204D03*
X023860Y005204D03*
D19*
X029864Y015677D03*
X029864Y016661D03*
X029864Y017645D03*
X030848Y017645D03*
X030848Y016661D03*
X030848Y015677D03*
D20*
X018606Y023708D03*
X018106Y023708D03*
X017606Y023708D03*
X017106Y023708D03*
X017106Y025756D03*
X017606Y025756D03*
X018106Y025756D03*
X018606Y025756D03*
D21*
X016832Y028885D03*
X016832Y029633D03*
X017698Y029259D03*
X017423Y020578D03*
X017423Y019830D03*
X018289Y020204D03*
D22*
X030356Y025322D03*
X031340Y025322D03*
X031340Y026897D03*
X030356Y026897D03*
X030356Y028472D03*
X031340Y028472D03*
X031340Y008393D03*
X030356Y008393D03*
X030356Y006819D03*
X031340Y006819D03*
X031340Y005244D03*
X030356Y005244D03*
D23*
X029667Y004456D03*
X032029Y004456D03*
X032029Y009181D03*
X029667Y009181D03*
X029667Y024535D03*
X032029Y024535D03*
X032029Y029259D03*
X029667Y029259D03*
D24*
X020602Y006228D03*
X019441Y006228D03*
D25*
X019313Y007626D03*
X019313Y008000D03*
X019313Y008374D03*
X020336Y008374D03*
X020336Y007626D03*
D26*
X018407Y006425D03*
X016911Y006425D03*
X024155Y006858D03*
X024155Y008354D03*
D27*
X031399Y010649D03*
X031399Y011649D03*
D28*
X032423Y011649D03*
X032423Y010649D03*
D29*
X013435Y020992D03*
X012435Y020992D03*
X014206Y028866D03*
X015206Y028866D03*
D30*
X022974Y028078D03*
X006439Y012527D03*
X027895Y004063D03*
M02*
