%
M48
M72
T01C0.0157
T02C0.0315
T03C0.0320
T04C0.0354
T05C0.0394
T06C0.0433
T07C0.0472
T08C0.0512
T09C0.0591
T10C0.0630
T11C0.1260
%
T01
X19824Y8000
X18840Y8000
X20179Y9771
X20179Y9378
T02
X29864Y12724
X19628Y20401
X19155Y25795
X16084Y25913
X19628Y19417
X14706Y11149
X16084Y11149
X30848Y12724
X26911Y25322
X21006Y11543
X21006Y14102
X28092Y26897
T03
X14206Y28866
X15206Y28866
X12435Y20992
X13435Y20992
T04
X30356Y26897
X31340Y26897
X30356Y25322
X31340Y25322
X30356Y28472
X31340Y28472
X30356Y6819
X31340Y6819
X30356Y5244
X31340Y5244
X30356Y8393
X31340Y8393
X31399Y11649
X31399Y10649
T05
X30848Y16661
X30848Y17645
X30848Y15677
X29864Y15677
X29864Y16661
X29864Y17645
T06
X32423Y11649
X32423Y10649
T07
X10433Y8000
X10433Y17448
X18151Y5204
X23860Y5204
X32029Y24535
X29667Y24535
X29667Y29259
X32029Y29259
X32029Y4456
X29667Y4456
X29667Y9181
X32029Y9181
T08
X28565Y18649
X28565Y14673
T09
X5257Y23295
X7718Y23295
X10179Y23295
X5257Y29712
X7718Y29712
X10179Y29712
T10
X5183Y6500
X7183Y9500
X8683Y6500
X8933Y9500
X5183Y15948
X7183Y18948
X8683Y15948
X8933Y18948
T11
X18053Y15874
X23958Y15874
M30
