G75*
G70*
%OFA0B0*%
%FSLAX24Y24*%
%IPPOS*%
%LPD*%
%AMOC8*
5,1,8,0,0,1.08239X$1,22.5*
%
%ADD10C,0.0000*%
%ADD11OC8,0.1181*%
%ADD12OC8,0.0945*%
%ADD13OC8,0.0984*%
%ADD14OC8,0.0787*%
%ADD15OC8,0.0709*%
%ADD16OC8,0.0866*%
%ADD17OC8,0.0748*%
%ADD18OC8,0.0700*%
%ADD19C,0.0197*%
%ADD20C,0.0630*%
%ADD21C,0.0315*%
%ADD22C,0.0394*%
D10*
X003683Y003275D02*
X004076Y002881D01*
X032423Y002881D01*
X032817Y003275D01*
X032817Y030441D01*
X032423Y030834D01*
X004076Y030834D01*
X003683Y030441D01*
X003683Y003275D01*
X004868Y006500D02*
X004870Y006535D01*
X004876Y006570D01*
X004886Y006604D01*
X004899Y006637D01*
X004916Y006668D01*
X004937Y006696D01*
X004960Y006723D01*
X004987Y006746D01*
X005015Y006767D01*
X005046Y006784D01*
X005079Y006797D01*
X005113Y006807D01*
X005148Y006813D01*
X005183Y006815D01*
X005218Y006813D01*
X005253Y006807D01*
X005287Y006797D01*
X005320Y006784D01*
X005351Y006767D01*
X005379Y006746D01*
X005406Y006723D01*
X005429Y006696D01*
X005450Y006668D01*
X005467Y006637D01*
X005480Y006604D01*
X005490Y006570D01*
X005496Y006535D01*
X005498Y006500D01*
X005496Y006465D01*
X005490Y006430D01*
X005480Y006396D01*
X005467Y006363D01*
X005450Y006332D01*
X005429Y006304D01*
X005406Y006277D01*
X005379Y006254D01*
X005351Y006233D01*
X005320Y006216D01*
X005287Y006203D01*
X005253Y006193D01*
X005218Y006187D01*
X005183Y006185D01*
X005148Y006187D01*
X005113Y006193D01*
X005079Y006203D01*
X005046Y006216D01*
X005015Y006233D01*
X004987Y006254D01*
X004960Y006277D01*
X004937Y006304D01*
X004916Y006332D01*
X004899Y006363D01*
X004886Y006396D01*
X004876Y006430D01*
X004870Y006465D01*
X004868Y006500D01*
X006868Y009500D02*
X006870Y009535D01*
X006876Y009570D01*
X006886Y009604D01*
X006899Y009637D01*
X006916Y009668D01*
X006937Y009696D01*
X006960Y009723D01*
X006987Y009746D01*
X007015Y009767D01*
X007046Y009784D01*
X007079Y009797D01*
X007113Y009807D01*
X007148Y009813D01*
X007183Y009815D01*
X007218Y009813D01*
X007253Y009807D01*
X007287Y009797D01*
X007320Y009784D01*
X007351Y009767D01*
X007379Y009746D01*
X007406Y009723D01*
X007429Y009696D01*
X007450Y009668D01*
X007467Y009637D01*
X007480Y009604D01*
X007490Y009570D01*
X007496Y009535D01*
X007498Y009500D01*
X007496Y009465D01*
X007490Y009430D01*
X007480Y009396D01*
X007467Y009363D01*
X007450Y009332D01*
X007429Y009304D01*
X007406Y009277D01*
X007379Y009254D01*
X007351Y009233D01*
X007320Y009216D01*
X007287Y009203D01*
X007253Y009193D01*
X007218Y009187D01*
X007183Y009185D01*
X007148Y009187D01*
X007113Y009193D01*
X007079Y009203D01*
X007046Y009216D01*
X007015Y009233D01*
X006987Y009254D01*
X006960Y009277D01*
X006937Y009304D01*
X006916Y009332D01*
X006899Y009363D01*
X006886Y009396D01*
X006876Y009430D01*
X006870Y009465D01*
X006868Y009500D01*
X004868Y015948D02*
X004870Y015983D01*
X004876Y016018D01*
X004886Y016052D01*
X004899Y016085D01*
X004916Y016116D01*
X004937Y016144D01*
X004960Y016171D01*
X004987Y016194D01*
X005015Y016215D01*
X005046Y016232D01*
X005079Y016245D01*
X005113Y016255D01*
X005148Y016261D01*
X005183Y016263D01*
X005218Y016261D01*
X005253Y016255D01*
X005287Y016245D01*
X005320Y016232D01*
X005351Y016215D01*
X005379Y016194D01*
X005406Y016171D01*
X005429Y016144D01*
X005450Y016116D01*
X005467Y016085D01*
X005480Y016052D01*
X005490Y016018D01*
X005496Y015983D01*
X005498Y015948D01*
X005496Y015913D01*
X005490Y015878D01*
X005480Y015844D01*
X005467Y015811D01*
X005450Y015780D01*
X005429Y015752D01*
X005406Y015725D01*
X005379Y015702D01*
X005351Y015681D01*
X005320Y015664D01*
X005287Y015651D01*
X005253Y015641D01*
X005218Y015635D01*
X005183Y015633D01*
X005148Y015635D01*
X005113Y015641D01*
X005079Y015651D01*
X005046Y015664D01*
X005015Y015681D01*
X004987Y015702D01*
X004960Y015725D01*
X004937Y015752D01*
X004916Y015780D01*
X004899Y015811D01*
X004886Y015844D01*
X004876Y015878D01*
X004870Y015913D01*
X004868Y015948D01*
X006868Y018948D02*
X006870Y018983D01*
X006876Y019018D01*
X006886Y019052D01*
X006899Y019085D01*
X006916Y019116D01*
X006937Y019144D01*
X006960Y019171D01*
X006987Y019194D01*
X007015Y019215D01*
X007046Y019232D01*
X007079Y019245D01*
X007113Y019255D01*
X007148Y019261D01*
X007183Y019263D01*
X007218Y019261D01*
X007253Y019255D01*
X007287Y019245D01*
X007320Y019232D01*
X007351Y019215D01*
X007379Y019194D01*
X007406Y019171D01*
X007429Y019144D01*
X007450Y019116D01*
X007467Y019085D01*
X007480Y019052D01*
X007490Y019018D01*
X007496Y018983D01*
X007498Y018948D01*
X007496Y018913D01*
X007490Y018878D01*
X007480Y018844D01*
X007467Y018811D01*
X007450Y018780D01*
X007429Y018752D01*
X007406Y018725D01*
X007379Y018702D01*
X007351Y018681D01*
X007320Y018664D01*
X007287Y018651D01*
X007253Y018641D01*
X007218Y018635D01*
X007183Y018633D01*
X007148Y018635D01*
X007113Y018641D01*
X007079Y018651D01*
X007046Y018664D01*
X007015Y018681D01*
X006987Y018702D01*
X006960Y018725D01*
X006937Y018752D01*
X006916Y018780D01*
X006899Y018811D01*
X006886Y018844D01*
X006876Y018878D01*
X006870Y018913D01*
X006868Y018948D01*
X017423Y015874D02*
X017425Y015924D01*
X017431Y015974D01*
X017441Y016023D01*
X017455Y016071D01*
X017472Y016118D01*
X017493Y016163D01*
X017518Y016207D01*
X017546Y016248D01*
X017578Y016287D01*
X017612Y016324D01*
X017649Y016358D01*
X017689Y016388D01*
X017731Y016415D01*
X017775Y016439D01*
X017821Y016460D01*
X017868Y016476D01*
X017916Y016489D01*
X017966Y016498D01*
X018015Y016503D01*
X018066Y016504D01*
X018116Y016501D01*
X018165Y016494D01*
X018214Y016483D01*
X018262Y016468D01*
X018308Y016450D01*
X018353Y016428D01*
X018396Y016402D01*
X018437Y016373D01*
X018476Y016341D01*
X018512Y016306D01*
X018544Y016268D01*
X018574Y016228D01*
X018601Y016185D01*
X018624Y016141D01*
X018643Y016095D01*
X018659Y016047D01*
X018671Y015998D01*
X018679Y015949D01*
X018683Y015899D01*
X018683Y015849D01*
X018679Y015799D01*
X018671Y015750D01*
X018659Y015701D01*
X018643Y015653D01*
X018624Y015607D01*
X018601Y015563D01*
X018574Y015520D01*
X018544Y015480D01*
X018512Y015442D01*
X018476Y015407D01*
X018437Y015375D01*
X018396Y015346D01*
X018353Y015320D01*
X018308Y015298D01*
X018262Y015280D01*
X018214Y015265D01*
X018165Y015254D01*
X018116Y015247D01*
X018066Y015244D01*
X018015Y015245D01*
X017966Y015250D01*
X017916Y015259D01*
X017868Y015272D01*
X017821Y015288D01*
X017775Y015309D01*
X017731Y015333D01*
X017689Y015360D01*
X017649Y015390D01*
X017612Y015424D01*
X017578Y015461D01*
X017546Y015500D01*
X017518Y015541D01*
X017493Y015585D01*
X017472Y015630D01*
X017455Y015677D01*
X017441Y015725D01*
X017431Y015774D01*
X017425Y015824D01*
X017423Y015874D01*
X023328Y015874D02*
X023330Y015924D01*
X023336Y015974D01*
X023346Y016023D01*
X023360Y016071D01*
X023377Y016118D01*
X023398Y016163D01*
X023423Y016207D01*
X023451Y016248D01*
X023483Y016287D01*
X023517Y016324D01*
X023554Y016358D01*
X023594Y016388D01*
X023636Y016415D01*
X023680Y016439D01*
X023726Y016460D01*
X023773Y016476D01*
X023821Y016489D01*
X023871Y016498D01*
X023920Y016503D01*
X023971Y016504D01*
X024021Y016501D01*
X024070Y016494D01*
X024119Y016483D01*
X024167Y016468D01*
X024213Y016450D01*
X024258Y016428D01*
X024301Y016402D01*
X024342Y016373D01*
X024381Y016341D01*
X024417Y016306D01*
X024449Y016268D01*
X024479Y016228D01*
X024506Y016185D01*
X024529Y016141D01*
X024548Y016095D01*
X024564Y016047D01*
X024576Y015998D01*
X024584Y015949D01*
X024588Y015899D01*
X024588Y015849D01*
X024584Y015799D01*
X024576Y015750D01*
X024564Y015701D01*
X024548Y015653D01*
X024529Y015607D01*
X024506Y015563D01*
X024479Y015520D01*
X024449Y015480D01*
X024417Y015442D01*
X024381Y015407D01*
X024342Y015375D01*
X024301Y015346D01*
X024258Y015320D01*
X024213Y015298D01*
X024167Y015280D01*
X024119Y015265D01*
X024070Y015254D01*
X024021Y015247D01*
X023971Y015244D01*
X023920Y015245D01*
X023871Y015250D01*
X023821Y015259D01*
X023773Y015272D01*
X023726Y015288D01*
X023680Y015309D01*
X023636Y015333D01*
X023594Y015360D01*
X023554Y015390D01*
X023517Y015424D01*
X023483Y015461D01*
X023451Y015500D01*
X023423Y015541D01*
X023398Y015585D01*
X023377Y015630D01*
X023360Y015677D01*
X023346Y015725D01*
X023336Y015774D01*
X023330Y015824D01*
X023328Y015874D01*
X032206Y011649D02*
X032208Y011678D01*
X032214Y011706D01*
X032223Y011734D01*
X032236Y011760D01*
X032253Y011783D01*
X032272Y011805D01*
X032294Y011824D01*
X032319Y011839D01*
X032345Y011852D01*
X032373Y011860D01*
X032401Y011865D01*
X032430Y011866D01*
X032459Y011863D01*
X032487Y011856D01*
X032514Y011846D01*
X032540Y011832D01*
X032563Y011815D01*
X032584Y011795D01*
X032602Y011772D01*
X032617Y011747D01*
X032628Y011720D01*
X032636Y011692D01*
X032640Y011663D01*
X032640Y011635D01*
X032636Y011606D01*
X032628Y011578D01*
X032617Y011551D01*
X032602Y011526D01*
X032584Y011503D01*
X032563Y011483D01*
X032540Y011466D01*
X032514Y011452D01*
X032487Y011442D01*
X032459Y011435D01*
X032430Y011432D01*
X032401Y011433D01*
X032373Y011438D01*
X032345Y011446D01*
X032319Y011459D01*
X032294Y011474D01*
X032272Y011493D01*
X032253Y011515D01*
X032236Y011538D01*
X032223Y011564D01*
X032214Y011592D01*
X032208Y011620D01*
X032206Y011649D01*
X032206Y010649D02*
X032208Y010678D01*
X032214Y010706D01*
X032223Y010734D01*
X032236Y010760D01*
X032253Y010783D01*
X032272Y010805D01*
X032294Y010824D01*
X032319Y010839D01*
X032345Y010852D01*
X032373Y010860D01*
X032401Y010865D01*
X032430Y010866D01*
X032459Y010863D01*
X032487Y010856D01*
X032514Y010846D01*
X032540Y010832D01*
X032563Y010815D01*
X032584Y010795D01*
X032602Y010772D01*
X032617Y010747D01*
X032628Y010720D01*
X032636Y010692D01*
X032640Y010663D01*
X032640Y010635D01*
X032636Y010606D01*
X032628Y010578D01*
X032617Y010551D01*
X032602Y010526D01*
X032584Y010503D01*
X032563Y010483D01*
X032540Y010466D01*
X032514Y010452D01*
X032487Y010442D01*
X032459Y010435D01*
X032430Y010432D01*
X032401Y010433D01*
X032373Y010438D01*
X032345Y010446D01*
X032319Y010459D01*
X032294Y010474D01*
X032272Y010493D01*
X032253Y010515D01*
X032236Y010538D01*
X032223Y010564D01*
X032214Y010592D01*
X032208Y010620D01*
X032206Y010649D01*
D11*
X010179Y023295D03*
X007718Y023295D03*
X005257Y023295D03*
X008933Y018948D03*
X008683Y015948D03*
X008933Y009500D03*
X008683Y006500D03*
X007718Y029712D03*
X010179Y029712D03*
X005257Y029712D03*
D12*
X010433Y017448D03*
X010433Y008000D03*
X028565Y014673D03*
X028565Y018649D03*
D13*
X023860Y005204D03*
X018151Y005204D03*
D14*
X029864Y015677D03*
X029864Y016661D03*
X029864Y017645D03*
X030848Y017645D03*
X030848Y016661D03*
X030848Y015677D03*
D15*
X030356Y008393D03*
X031340Y008393D03*
X031340Y006819D03*
X030356Y006819D03*
X030356Y005244D03*
X031340Y005244D03*
X031340Y025322D03*
X030356Y025322D03*
X030356Y026897D03*
X031340Y026897D03*
X031340Y028472D03*
X030356Y028472D03*
D16*
X029667Y029259D03*
X032029Y029259D03*
X032029Y024535D03*
X029667Y024535D03*
X029667Y009181D03*
X032029Y009181D03*
X032029Y004456D03*
X029667Y004456D03*
D17*
X031399Y010649D03*
X031399Y011649D03*
D18*
X013435Y020992D03*
X012435Y020992D03*
X014206Y028866D03*
X015206Y028866D03*
D19*
X014706Y029445D02*
X014523Y029629D01*
X013890Y029629D01*
X013443Y029182D01*
X013443Y028550D01*
X013890Y028102D01*
X014523Y028102D01*
X014706Y028286D01*
X014890Y028102D01*
X015523Y028102D01*
X015970Y028550D01*
X015970Y029182D01*
X015523Y029629D01*
X014890Y029629D01*
X014706Y029445D01*
X014702Y029449D02*
X014710Y029449D01*
X015702Y029449D02*
X028820Y029449D01*
X028820Y029610D02*
X028820Y028909D01*
X029316Y028413D01*
X029588Y028413D01*
X029588Y028154D01*
X030038Y027704D01*
X030674Y027704D01*
X030848Y027878D01*
X031022Y027704D01*
X031658Y027704D01*
X032108Y028154D01*
X032108Y028413D01*
X032380Y028413D01*
X032403Y028436D01*
X032403Y025358D01*
X032380Y025381D01*
X032108Y025381D01*
X032108Y025640D01*
X031658Y026090D01*
X031022Y026090D01*
X030848Y025916D01*
X030674Y026090D01*
X030038Y026090D01*
X029782Y025834D01*
X027429Y025834D01*
X027324Y025940D01*
X027056Y026051D01*
X026766Y026051D01*
X026498Y025940D01*
X026294Y025735D01*
X026183Y025467D01*
X026183Y025178D01*
X026294Y024910D01*
X026498Y024705D01*
X026766Y024594D01*
X027056Y024594D01*
X027324Y024705D01*
X027429Y024811D01*
X028820Y024811D01*
X028820Y024184D01*
X029316Y023689D01*
X030018Y023689D01*
X030513Y024184D01*
X030513Y024555D01*
X030674Y024555D01*
X030848Y024729D01*
X031022Y024555D01*
X031183Y024555D01*
X031183Y024184D01*
X031679Y023689D01*
X032380Y023689D01*
X032403Y023712D01*
X032403Y012279D01*
X032298Y012279D01*
X032066Y012183D01*
X032022Y012140D01*
X031725Y012437D01*
X031399Y012437D01*
X031073Y012437D01*
X030612Y011975D01*
X030612Y011649D01*
X030612Y011323D01*
X030786Y011149D01*
X030612Y010975D01*
X030612Y010323D01*
X031073Y009862D01*
X031513Y009862D01*
X031183Y009531D01*
X031183Y009161D01*
X031022Y009161D01*
X030848Y008987D01*
X030674Y009161D01*
X030513Y009161D01*
X030513Y009531D01*
X030018Y010027D01*
X029316Y010027D01*
X028820Y009531D01*
X028820Y008830D01*
X029316Y008334D01*
X029588Y008334D01*
X029588Y008075D01*
X030038Y007626D01*
X030674Y007626D01*
X030848Y007800D01*
X031022Y007626D01*
X031658Y007626D01*
X032108Y008075D01*
X032108Y008334D01*
X032380Y008334D01*
X032403Y008358D01*
X032403Y005279D01*
X032380Y005303D01*
X032108Y005303D01*
X032108Y005562D01*
X031658Y006011D01*
X031022Y006011D01*
X030848Y005837D01*
X030674Y006011D01*
X030038Y006011D01*
X029588Y005562D01*
X029588Y005303D01*
X029316Y005303D01*
X028820Y004807D01*
X028820Y004106D01*
X029316Y003610D01*
X030018Y003610D01*
X030513Y004106D01*
X030513Y004476D01*
X030674Y004476D01*
X030848Y004650D01*
X031022Y004476D01*
X031183Y004476D01*
X031183Y004106D01*
X031679Y003610D01*
X032380Y003610D01*
X032403Y003633D01*
X032403Y003446D01*
X032252Y003295D01*
X011655Y003295D01*
X011655Y021033D01*
X011597Y021090D01*
X004096Y021090D01*
X004096Y030269D01*
X004248Y030421D01*
X004546Y030421D01*
X004254Y030128D01*
X004254Y029296D01*
X004842Y028708D01*
X005673Y028708D01*
X006261Y029296D01*
X006261Y030128D01*
X005969Y030421D01*
X007007Y030421D01*
X006714Y030128D01*
X006714Y029296D01*
X007302Y028708D01*
X008134Y028708D01*
X008722Y029296D01*
X008722Y030128D01*
X008429Y030421D01*
X009468Y030421D01*
X009175Y030128D01*
X009175Y029296D01*
X009763Y028708D01*
X010595Y028708D01*
X011183Y029296D01*
X011183Y030128D01*
X010890Y030421D01*
X032252Y030421D01*
X032403Y030269D01*
X032403Y030083D01*
X032380Y030106D01*
X031679Y030106D01*
X031183Y029610D01*
X031183Y029240D01*
X031022Y029240D01*
X030848Y029066D01*
X030674Y029240D01*
X030513Y029240D01*
X030513Y029610D01*
X030018Y030106D01*
X029316Y030106D01*
X028820Y029610D01*
X028855Y029645D02*
X011183Y029645D01*
X011183Y029840D02*
X029050Y029840D01*
X029246Y030035D02*
X011183Y030035D01*
X011080Y030231D02*
X032403Y030231D01*
X031608Y030035D02*
X030088Y030035D01*
X030284Y029840D02*
X031413Y029840D01*
X031217Y029645D02*
X030479Y029645D01*
X030513Y029449D02*
X031183Y029449D01*
X031183Y029254D02*
X030513Y029254D01*
X029588Y028277D02*
X015697Y028277D01*
X015893Y028472D02*
X029257Y028472D01*
X029062Y028668D02*
X015970Y028668D01*
X015970Y028863D02*
X028866Y028863D01*
X028820Y029058D02*
X015970Y029058D01*
X015898Y029254D02*
X028820Y029254D01*
X029661Y028082D02*
X004096Y028082D01*
X004096Y028277D02*
X013715Y028277D01*
X013520Y028472D02*
X004096Y028472D01*
X004096Y028668D02*
X013443Y028668D01*
X013443Y028863D02*
X010749Y028863D01*
X010945Y029058D02*
X013443Y029058D01*
X013515Y029254D02*
X011140Y029254D01*
X011183Y029449D02*
X013710Y029449D01*
X014697Y028277D02*
X014715Y028277D01*
X010719Y024175D02*
X028830Y024175D01*
X028820Y024370D02*
X004096Y024370D01*
X004096Y024175D02*
X004718Y024175D01*
X004842Y024299D02*
X004254Y023711D01*
X004254Y023344D01*
X005208Y023344D01*
X005208Y023246D01*
X004254Y023246D01*
X004254Y022879D01*
X004842Y022291D01*
X005208Y022291D01*
X005208Y023246D01*
X005307Y023246D01*
X005307Y023344D01*
X006261Y023344D01*
X006261Y023711D01*
X005673Y024299D01*
X005307Y024299D01*
X005307Y023344D01*
X005208Y023344D01*
X005208Y024299D01*
X004842Y024299D01*
X005208Y024175D02*
X005307Y024175D01*
X005307Y023979D02*
X005208Y023979D01*
X005208Y023784D02*
X005307Y023784D01*
X005307Y023589D02*
X005208Y023589D01*
X005208Y023393D02*
X005307Y023393D01*
X005307Y023246D02*
X006261Y023246D01*
X006261Y022879D01*
X005673Y022291D01*
X005307Y022291D01*
X005307Y023246D01*
X005307Y023198D02*
X005208Y023198D01*
X005208Y023003D02*
X005307Y023003D01*
X005307Y022807D02*
X005208Y022807D01*
X005208Y022612D02*
X005307Y022612D01*
X005307Y022417D02*
X005208Y022417D01*
X004716Y022417D02*
X004096Y022417D01*
X004096Y022612D02*
X004521Y022612D01*
X004325Y022807D02*
X004096Y022807D01*
X004096Y023003D02*
X004254Y023003D01*
X004254Y023198D02*
X004096Y023198D01*
X004096Y023393D02*
X004254Y023393D01*
X004254Y023589D02*
X004096Y023589D01*
X004096Y023784D02*
X004327Y023784D01*
X004522Y023979D02*
X004096Y023979D01*
X004096Y024565D02*
X028820Y024565D01*
X028820Y024761D02*
X027379Y024761D01*
X026911Y025322D02*
X030356Y025322D01*
X031340Y025322D01*
X030865Y025933D02*
X030831Y025933D01*
X030674Y026130D02*
X030848Y026304D01*
X031022Y026130D01*
X031658Y026130D01*
X032108Y026579D01*
X032108Y027215D01*
X031658Y027665D01*
X031022Y027665D01*
X030848Y027491D01*
X030674Y027665D01*
X030038Y027665D01*
X029782Y027409D01*
X028610Y027409D01*
X028505Y027515D01*
X028237Y027626D01*
X027947Y027626D01*
X027680Y027515D01*
X027475Y027310D01*
X027364Y027042D01*
X027364Y026752D01*
X027475Y026485D01*
X027680Y026280D01*
X027947Y026169D01*
X028237Y026169D01*
X028505Y026280D01*
X028610Y026385D01*
X029782Y026385D01*
X030038Y026130D01*
X030674Y026130D01*
X029881Y025933D02*
X027331Y025933D01*
X027636Y026324D02*
X004096Y026324D01*
X004096Y026519D02*
X027460Y026519D01*
X027380Y026714D02*
X004096Y026714D01*
X004096Y026910D02*
X027364Y026910D01*
X027390Y027105D02*
X004096Y027105D01*
X004096Y027300D02*
X027471Y027300D01*
X027661Y027496D02*
X004096Y027496D01*
X004096Y027691D02*
X032403Y027691D01*
X032403Y027496D02*
X031827Y027496D01*
X032023Y027300D02*
X032403Y027300D01*
X032403Y027105D02*
X032108Y027105D01*
X032108Y026910D02*
X032403Y026910D01*
X032403Y026714D02*
X032108Y026714D01*
X032048Y026519D02*
X032403Y026519D01*
X032403Y026324D02*
X031852Y026324D01*
X031815Y025933D02*
X032403Y025933D01*
X032403Y026128D02*
X004096Y026128D01*
X004096Y025933D02*
X026491Y025933D01*
X026296Y025738D02*
X004096Y025738D01*
X004096Y025542D02*
X026214Y025542D01*
X026183Y025347D02*
X004096Y025347D01*
X004096Y025151D02*
X026193Y025151D01*
X026274Y024956D02*
X004096Y024956D01*
X004096Y024761D02*
X026443Y024761D01*
X028548Y026324D02*
X029844Y026324D01*
X030356Y026897D02*
X031340Y026897D01*
X030853Y027496D02*
X030843Y027496D01*
X030356Y026897D02*
X028092Y026897D01*
X028524Y027496D02*
X029869Y027496D01*
X029856Y027886D02*
X004096Y027886D01*
X004096Y028863D02*
X004687Y028863D01*
X004491Y029058D02*
X004096Y029058D01*
X004096Y029254D02*
X004296Y029254D01*
X004254Y029449D02*
X004096Y029449D01*
X004096Y029645D02*
X004254Y029645D01*
X004254Y029840D02*
X004096Y029840D01*
X004096Y030035D02*
X004254Y030035D01*
X004356Y030231D02*
X004096Y030231D01*
X005828Y028863D02*
X007147Y028863D01*
X006952Y029058D02*
X006024Y029058D01*
X006219Y029254D02*
X006757Y029254D01*
X006714Y029449D02*
X006261Y029449D01*
X006261Y029645D02*
X006714Y029645D01*
X006714Y029840D02*
X006261Y029840D01*
X006261Y030035D02*
X006714Y030035D01*
X006817Y030231D02*
X006159Y030231D01*
X008289Y028863D02*
X009608Y028863D01*
X009413Y029058D02*
X008484Y029058D01*
X008680Y029254D02*
X009217Y029254D01*
X009175Y029449D02*
X008722Y029449D01*
X008722Y029645D02*
X009175Y029645D01*
X009175Y029840D02*
X008722Y029840D01*
X008722Y030035D02*
X009175Y030035D01*
X009277Y030231D02*
X008620Y030231D01*
X008134Y024299D02*
X007302Y024299D01*
X006714Y023711D01*
X006714Y022879D01*
X007302Y022291D01*
X008134Y022291D01*
X008722Y022879D01*
X008722Y023711D01*
X008134Y024299D01*
X008258Y024175D02*
X009639Y024175D01*
X009763Y024299D02*
X009175Y023711D01*
X009175Y022879D01*
X009763Y022291D01*
X010595Y022291D01*
X011183Y022879D01*
X011183Y023711D01*
X010595Y024299D01*
X009763Y024299D01*
X009443Y023979D02*
X008453Y023979D01*
X008649Y023784D02*
X009248Y023784D01*
X009175Y023589D02*
X008722Y023589D01*
X008722Y023393D02*
X009175Y023393D01*
X009175Y023198D02*
X008722Y023198D01*
X008722Y023003D02*
X009175Y023003D01*
X009247Y022807D02*
X008650Y022807D01*
X008455Y022612D02*
X009442Y022612D01*
X009637Y022417D02*
X008260Y022417D01*
X007177Y022417D02*
X005799Y022417D01*
X005994Y022612D02*
X006981Y022612D01*
X006786Y022807D02*
X006190Y022807D01*
X006261Y023003D02*
X006714Y023003D01*
X006714Y023198D02*
X006261Y023198D01*
X006261Y023393D02*
X006714Y023393D01*
X006714Y023589D02*
X006261Y023589D01*
X006188Y023784D02*
X006787Y023784D01*
X006983Y023979D02*
X005993Y023979D01*
X005797Y024175D02*
X007178Y024175D01*
X004096Y022221D02*
X032403Y022221D01*
X032403Y022026D02*
X004096Y022026D01*
X004096Y021831D02*
X032403Y021831D01*
X032403Y021635D02*
X013871Y021635D01*
X013751Y021755D02*
X013118Y021755D01*
X012935Y021571D01*
X012751Y021755D01*
X012118Y021755D01*
X011671Y021308D01*
X011671Y020676D01*
X012118Y020228D01*
X012751Y020228D01*
X012935Y020412D01*
X013118Y020228D01*
X013751Y020228D01*
X014198Y020676D01*
X014198Y021308D01*
X013751Y021755D01*
X014066Y021440D02*
X032403Y021440D01*
X032403Y021244D02*
X014198Y021244D01*
X014198Y021049D02*
X032403Y021049D01*
X032403Y020854D02*
X014198Y020854D01*
X014181Y020658D02*
X032403Y020658D01*
X032403Y020463D02*
X013986Y020463D01*
X013790Y020268D02*
X032403Y020268D01*
X032403Y020072D02*
X011655Y020072D01*
X011655Y019877D02*
X032403Y019877D01*
X032403Y019682D02*
X011655Y019682D01*
X011655Y019486D02*
X028149Y019486D01*
X028198Y019535D02*
X027679Y019016D01*
X027679Y018282D01*
X028198Y017763D01*
X028931Y017763D01*
X029057Y017889D01*
X029057Y017311D01*
X029215Y017153D01*
X029057Y016995D01*
X029057Y016327D01*
X029215Y016169D01*
X029057Y016011D01*
X029057Y015433D01*
X028931Y015559D01*
X028198Y015559D01*
X027679Y015040D01*
X027679Y014306D01*
X028198Y013787D01*
X028931Y013787D01*
X029450Y014306D01*
X029450Y014949D01*
X029529Y014870D01*
X030198Y014870D01*
X030356Y015028D01*
X030514Y014870D01*
X031182Y014870D01*
X031655Y015342D01*
X031655Y016011D01*
X031497Y016169D01*
X031655Y016327D01*
X031655Y016995D01*
X031497Y017153D01*
X031655Y017311D01*
X031655Y017980D01*
X031182Y018452D01*
X030514Y018452D01*
X030356Y018295D01*
X030198Y018452D01*
X029529Y018452D01*
X029450Y018373D01*
X029450Y019016D01*
X028931Y019535D01*
X028198Y019535D01*
X027954Y019291D02*
X011655Y019291D01*
X011655Y019096D02*
X027758Y019096D01*
X027679Y018900D02*
X011655Y018900D01*
X011655Y018705D02*
X027679Y018705D01*
X027679Y018510D02*
X011655Y018510D01*
X011655Y018314D02*
X027679Y018314D01*
X027842Y018119D02*
X011655Y018119D01*
X011655Y017923D02*
X028038Y017923D01*
X029057Y017728D02*
X011655Y017728D01*
X011655Y017533D02*
X029057Y017533D01*
X029057Y017337D02*
X011655Y017337D01*
X011655Y017142D02*
X029203Y017142D01*
X029057Y016947D02*
X011655Y016947D01*
X011655Y016751D02*
X017486Y016751D01*
X017412Y016708D02*
X017218Y016514D01*
X017081Y016276D01*
X017009Y016011D01*
X017009Y015736D01*
X017081Y015471D01*
X017218Y015233D01*
X017412Y015039D01*
X017650Y014901D01*
X017915Y014830D01*
X018190Y014830D01*
X018455Y014901D01*
X018693Y015039D01*
X018888Y015233D01*
X019025Y015471D01*
X019096Y015736D01*
X019096Y016011D01*
X019025Y016276D01*
X018888Y016514D01*
X018693Y016708D01*
X018455Y016846D01*
X018190Y016917D01*
X017915Y016917D01*
X017650Y016846D01*
X017412Y016708D01*
X017260Y016556D02*
X011655Y016556D01*
X011655Y016361D02*
X017129Y016361D01*
X017051Y016165D02*
X011655Y016165D01*
X011655Y015970D02*
X017009Y015970D01*
X017009Y015775D02*
X011655Y015775D01*
X011655Y015579D02*
X017052Y015579D01*
X017131Y015384D02*
X011655Y015384D01*
X011655Y015189D02*
X017262Y015189D01*
X017491Y014993D02*
X011655Y014993D01*
X011655Y014798D02*
X020782Y014798D01*
X020861Y014830D02*
X020593Y014719D01*
X020388Y014515D01*
X020277Y014247D01*
X020277Y013957D01*
X020388Y013689D01*
X020395Y013682D01*
X020395Y011963D01*
X020388Y011955D01*
X020277Y011688D01*
X020277Y011398D01*
X020388Y011130D01*
X020593Y010925D01*
X020861Y010815D01*
X021150Y010815D01*
X021418Y010925D01*
X021623Y011130D01*
X021734Y011398D01*
X021734Y011688D01*
X021623Y011955D01*
X021616Y011963D01*
X021616Y013682D01*
X021623Y013689D01*
X021734Y013957D01*
X021734Y014247D01*
X021623Y014515D01*
X021418Y014719D01*
X021150Y014830D01*
X020861Y014830D01*
X021229Y014798D02*
X027679Y014798D01*
X027679Y014993D02*
X024520Y014993D01*
X024599Y015039D02*
X024793Y015233D01*
X024930Y015471D01*
X025002Y015736D01*
X025002Y016011D01*
X024930Y016276D01*
X024793Y016514D01*
X024599Y016708D01*
X024361Y016846D01*
X024096Y016917D01*
X023821Y016917D01*
X023556Y016846D01*
X023318Y016708D01*
X023123Y016514D01*
X022986Y016276D01*
X022915Y016011D01*
X022915Y015736D01*
X022986Y015471D01*
X023123Y015233D01*
X023318Y015039D01*
X023556Y014901D01*
X023821Y014830D01*
X024096Y014830D01*
X024361Y014901D01*
X024599Y015039D01*
X024749Y015189D02*
X027828Y015189D01*
X028023Y015384D02*
X024880Y015384D01*
X024960Y015579D02*
X029057Y015579D01*
X029057Y015775D02*
X025002Y015775D01*
X025002Y015970D02*
X029057Y015970D01*
X029211Y016165D02*
X024960Y016165D01*
X024882Y016361D02*
X029057Y016361D01*
X029057Y016556D02*
X024751Y016556D01*
X024525Y016751D02*
X029057Y016751D01*
X030336Y018314D02*
X030376Y018314D01*
X029450Y018510D02*
X032403Y018510D01*
X032403Y018705D02*
X029450Y018705D01*
X029450Y018900D02*
X032403Y018900D01*
X032403Y019096D02*
X029371Y019096D01*
X029176Y019291D02*
X032403Y019291D01*
X032403Y019486D02*
X028980Y019486D01*
X031321Y018314D02*
X032403Y018314D01*
X032403Y018119D02*
X031516Y018119D01*
X031655Y017923D02*
X032403Y017923D01*
X032403Y017728D02*
X031655Y017728D01*
X031655Y017533D02*
X032403Y017533D01*
X032403Y017337D02*
X031655Y017337D01*
X031508Y017142D02*
X032403Y017142D01*
X032403Y016947D02*
X031655Y016947D01*
X031655Y016751D02*
X032403Y016751D01*
X032403Y016556D02*
X031655Y016556D01*
X031655Y016361D02*
X032403Y016361D01*
X032403Y016165D02*
X031501Y016165D01*
X031655Y015970D02*
X032403Y015970D01*
X032403Y015775D02*
X031655Y015775D01*
X031655Y015579D02*
X032403Y015579D01*
X032403Y015384D02*
X031655Y015384D01*
X031501Y015189D02*
X032403Y015189D01*
X032403Y014993D02*
X031306Y014993D01*
X030390Y014993D02*
X030322Y014993D01*
X029450Y014798D02*
X032403Y014798D01*
X032403Y014603D02*
X029450Y014603D01*
X029450Y014407D02*
X032403Y014407D01*
X032403Y014212D02*
X029356Y014212D01*
X029161Y014016D02*
X032403Y014016D01*
X032403Y013821D02*
X028966Y013821D01*
X028164Y013821D02*
X021678Y013821D01*
X021734Y014016D02*
X027968Y014016D01*
X027773Y014212D02*
X021734Y014212D01*
X021667Y014407D02*
X027679Y014407D01*
X027679Y014603D02*
X021535Y014603D01*
X021616Y013626D02*
X032403Y013626D01*
X032403Y013430D02*
X021616Y013430D01*
X021616Y013235D02*
X032403Y013235D01*
X032403Y013040D02*
X021616Y013040D01*
X021616Y012844D02*
X032403Y012844D01*
X032403Y012649D02*
X021616Y012649D01*
X021616Y012454D02*
X032403Y012454D01*
X032247Y012258D02*
X031904Y012258D01*
X031399Y012258D02*
X031399Y012258D01*
X031399Y012437D02*
X031399Y011649D01*
X030612Y011649D01*
X031399Y011649D01*
X031399Y011649D01*
X031399Y011649D01*
X031399Y012437D01*
X031399Y012063D02*
X031399Y012063D01*
X031399Y011868D02*
X031399Y011868D01*
X031399Y011672D02*
X031399Y011672D01*
X030895Y012258D02*
X021616Y012258D01*
X021616Y012063D02*
X030699Y012063D01*
X030612Y011868D02*
X021659Y011868D01*
X021734Y011672D02*
X030612Y011672D01*
X030612Y011477D02*
X021734Y011477D01*
X021686Y011282D02*
X030653Y011282D01*
X030723Y011086D02*
X021579Y011086D01*
X021335Y010891D02*
X030612Y010891D01*
X030612Y010696D02*
X011655Y010696D01*
X011655Y010891D02*
X020676Y010891D01*
X020432Y011086D02*
X011655Y011086D01*
X011655Y011282D02*
X020325Y011282D01*
X020277Y011477D02*
X011655Y011477D01*
X011655Y011672D02*
X020277Y011672D01*
X020352Y011868D02*
X011655Y011868D01*
X011655Y012063D02*
X020395Y012063D01*
X020395Y012258D02*
X011655Y012258D01*
X011655Y012454D02*
X020395Y012454D01*
X020395Y012649D02*
X011655Y012649D01*
X011655Y012844D02*
X020395Y012844D01*
X020395Y013040D02*
X011655Y013040D01*
X011655Y013235D02*
X020395Y013235D01*
X020395Y013430D02*
X011655Y013430D01*
X011655Y013626D02*
X020395Y013626D01*
X020333Y013821D02*
X011655Y013821D01*
X011655Y014016D02*
X020277Y014016D01*
X020277Y014212D02*
X011655Y014212D01*
X011655Y014407D02*
X020344Y014407D01*
X020476Y014603D02*
X011655Y014603D01*
X011655Y010500D02*
X030612Y010500D01*
X030630Y010305D02*
X011655Y010305D01*
X011655Y010109D02*
X030825Y010109D01*
X031021Y009914D02*
X030131Y009914D01*
X030326Y009719D02*
X031370Y009719D01*
X031183Y009523D02*
X030513Y009523D01*
X030513Y009328D02*
X031183Y009328D01*
X030994Y009133D02*
X030702Y009133D01*
X029588Y008156D02*
X011655Y008156D01*
X011655Y008351D02*
X029299Y008351D01*
X029104Y008547D02*
X011655Y008547D01*
X011655Y008742D02*
X028909Y008742D01*
X028820Y008937D02*
X011655Y008937D01*
X011655Y009133D02*
X028820Y009133D01*
X028820Y009328D02*
X011655Y009328D01*
X011655Y009523D02*
X028820Y009523D01*
X029008Y009719D02*
X011655Y009719D01*
X011655Y009914D02*
X029203Y009914D01*
X029703Y007961D02*
X011655Y007961D01*
X011655Y007765D02*
X029898Y007765D01*
X030038Y007586D02*
X029588Y007137D01*
X029588Y006501D01*
X030038Y006051D01*
X030674Y006051D01*
X030848Y006225D01*
X031022Y006051D01*
X031658Y006051D01*
X032108Y006501D01*
X032108Y007137D01*
X031658Y007586D01*
X031022Y007586D01*
X030848Y007412D01*
X030674Y007586D01*
X030038Y007586D01*
X030022Y007570D02*
X011655Y007570D01*
X011655Y007375D02*
X029826Y007375D01*
X029631Y007179D02*
X011655Y007179D01*
X011655Y006984D02*
X029588Y006984D01*
X029588Y006789D02*
X011655Y006789D01*
X011655Y006593D02*
X029588Y006593D01*
X029691Y006398D02*
X011655Y006398D01*
X011655Y006202D02*
X029886Y006202D01*
X030034Y006007D02*
X024338Y006007D01*
X024235Y006110D02*
X023880Y006110D01*
X023880Y005224D01*
X024765Y005224D01*
X024765Y005579D01*
X024235Y006110D01*
X023880Y006007D02*
X023840Y006007D01*
X023840Y006110D02*
X023485Y006110D01*
X022954Y005579D01*
X022954Y005224D01*
X023840Y005224D01*
X023840Y005185D01*
X022954Y005185D01*
X022954Y004829D01*
X023485Y004299D01*
X023840Y004299D01*
X023840Y005185D01*
X023880Y005185D01*
X023880Y005224D01*
X023840Y005224D01*
X023840Y006110D01*
X023840Y005812D02*
X023880Y005812D01*
X023880Y005616D02*
X023840Y005616D01*
X023840Y005421D02*
X023880Y005421D01*
X023880Y005226D02*
X023840Y005226D01*
X023880Y005185D02*
X023880Y004299D01*
X024235Y004299D01*
X024765Y004829D01*
X024765Y005185D01*
X023880Y005185D01*
X023880Y005030D02*
X023840Y005030D01*
X023840Y004835D02*
X023880Y004835D01*
X023880Y004640D02*
X023840Y004640D01*
X023840Y004444D02*
X023880Y004444D01*
X024380Y004444D02*
X028820Y004444D01*
X028820Y004249D02*
X011655Y004249D01*
X011655Y004444D02*
X017631Y004444D01*
X017776Y004299D02*
X017246Y004829D01*
X017246Y005579D01*
X017776Y006110D01*
X018526Y006110D01*
X019057Y005579D01*
X019057Y004829D01*
X018526Y004299D01*
X017776Y004299D01*
X017435Y004640D02*
X011655Y004640D01*
X011655Y004835D02*
X017246Y004835D01*
X017246Y005030D02*
X011655Y005030D01*
X011655Y005226D02*
X017246Y005226D01*
X017246Y005421D02*
X011655Y005421D01*
X011655Y005616D02*
X017283Y005616D01*
X017478Y005812D02*
X011655Y005812D01*
X011655Y006007D02*
X017673Y006007D01*
X018629Y006007D02*
X023382Y006007D01*
X023187Y005812D02*
X018824Y005812D01*
X019020Y005616D02*
X022991Y005616D01*
X022954Y005421D02*
X019057Y005421D01*
X019057Y005226D02*
X022954Y005226D01*
X022954Y005030D02*
X019057Y005030D01*
X019057Y004835D02*
X022954Y004835D01*
X023144Y004640D02*
X018867Y004640D01*
X018672Y004444D02*
X023339Y004444D01*
X024576Y004640D02*
X028820Y004640D01*
X028849Y004835D02*
X024765Y004835D01*
X024765Y005030D02*
X029044Y005030D01*
X029239Y005226D02*
X024765Y005226D01*
X024765Y005421D02*
X029588Y005421D01*
X029643Y005616D02*
X024728Y005616D01*
X024533Y005812D02*
X029838Y005812D01*
X030678Y006007D02*
X031018Y006007D01*
X030870Y006202D02*
X030826Y006202D01*
X031662Y006007D02*
X032403Y006007D01*
X032403Y005812D02*
X031858Y005812D01*
X032053Y005616D02*
X032403Y005616D01*
X032403Y005421D02*
X032108Y005421D01*
X031183Y004444D02*
X030513Y004444D01*
X030513Y004249D02*
X031183Y004249D01*
X031235Y004054D02*
X030461Y004054D01*
X030266Y003858D02*
X031430Y003858D01*
X031625Y003663D02*
X030071Y003663D01*
X029263Y003663D02*
X011655Y003663D01*
X011655Y003858D02*
X029068Y003858D01*
X028873Y004054D02*
X011655Y004054D01*
X011655Y003468D02*
X032403Y003468D01*
X030858Y004640D02*
X030838Y004640D01*
X031810Y006202D02*
X032403Y006202D01*
X032403Y006398D02*
X032005Y006398D01*
X032108Y006593D02*
X032403Y006593D01*
X032403Y006789D02*
X032108Y006789D01*
X032108Y006984D02*
X032403Y006984D01*
X032403Y007179D02*
X032065Y007179D01*
X031870Y007375D02*
X032403Y007375D01*
X032403Y007570D02*
X031674Y007570D01*
X031798Y007765D02*
X032403Y007765D01*
X032403Y007961D02*
X031993Y007961D01*
X032108Y008156D02*
X032403Y008156D01*
X032397Y008351D02*
X032403Y008351D01*
X031006Y007570D02*
X030690Y007570D01*
X030814Y007765D02*
X030882Y007765D01*
X023397Y014993D02*
X018614Y014993D01*
X018843Y015189D02*
X023168Y015189D01*
X023036Y015384D02*
X018975Y015384D01*
X019054Y015579D02*
X022957Y015579D01*
X022915Y015775D02*
X019096Y015775D01*
X019096Y015970D02*
X022915Y015970D01*
X022956Y016165D02*
X019055Y016165D01*
X018976Y016361D02*
X023035Y016361D01*
X023165Y016556D02*
X018846Y016556D01*
X018619Y016751D02*
X023392Y016751D01*
X029221Y023784D02*
X011109Y023784D01*
X011183Y023589D02*
X032403Y023589D01*
X032403Y023393D02*
X011183Y023393D01*
X011183Y023198D02*
X032403Y023198D01*
X032403Y023003D02*
X011183Y023003D01*
X011111Y022807D02*
X032403Y022807D01*
X032403Y022612D02*
X010916Y022612D01*
X010720Y022417D02*
X032403Y022417D01*
X031583Y023784D02*
X030113Y023784D01*
X030308Y023979D02*
X031388Y023979D01*
X031192Y024175D02*
X030504Y024175D01*
X030513Y024370D02*
X031183Y024370D01*
X031011Y024565D02*
X030685Y024565D01*
X032108Y025542D02*
X032403Y025542D01*
X032403Y025738D02*
X032011Y025738D01*
X031840Y027886D02*
X032403Y027886D01*
X032403Y028082D02*
X032036Y028082D01*
X032108Y028277D02*
X032403Y028277D01*
X029026Y023979D02*
X010914Y023979D01*
X011998Y021635D02*
X004096Y021635D01*
X004096Y021440D02*
X011803Y021440D01*
X011671Y021244D02*
X004096Y021244D01*
X011639Y021049D02*
X011671Y021049D01*
X011655Y020854D02*
X011671Y020854D01*
X011655Y020658D02*
X011688Y020658D01*
X011655Y020463D02*
X011884Y020463D01*
X012079Y020268D02*
X011655Y020268D01*
X012790Y020268D02*
X013079Y020268D01*
X012998Y021635D02*
X012871Y021635D01*
D20*
X016084Y025913D03*
X019155Y025795D03*
X019628Y020401D03*
X019628Y019417D03*
X021006Y014102D03*
X021006Y011543D03*
X016084Y011149D03*
X014706Y011149D03*
X029864Y012724D03*
X030848Y012724D03*
X026911Y025322D03*
X028092Y026897D03*
D21*
X020179Y009771D03*
X020179Y009378D03*
X019824Y008000D03*
X018840Y008000D03*
D22*
X021006Y011543D02*
X021006Y014102D01*
M02*
