G75*
G70*
%OFA0B0*%
%FSLAX24Y24*%
%IPPOS*%
%LPD*%
%AMOC8*
5,1,8,0,0,1.08239X$1,22.5*
%
%ADD10C,0.0000*%
%ADD11C,0.0079*%
%ADD12C,0.0080*%
%ADD13C,0.0250*%
%ADD14C,0.0060*%
%ADD15R,0.0354X0.0551*%
%ADD16R,0.0551X0.0354*%
D10*
X003683Y003275D02*
X004076Y002881D01*
X032423Y002881D01*
X032817Y003275D01*
X032817Y030441D01*
X032423Y030834D01*
X004076Y030834D01*
X003683Y030441D01*
X003683Y003275D01*
X004868Y006500D02*
X004870Y006535D01*
X004876Y006570D01*
X004886Y006604D01*
X004899Y006637D01*
X004916Y006668D01*
X004937Y006696D01*
X004960Y006723D01*
X004987Y006746D01*
X005015Y006767D01*
X005046Y006784D01*
X005079Y006797D01*
X005113Y006807D01*
X005148Y006813D01*
X005183Y006815D01*
X005218Y006813D01*
X005253Y006807D01*
X005287Y006797D01*
X005320Y006784D01*
X005351Y006767D01*
X005379Y006746D01*
X005406Y006723D01*
X005429Y006696D01*
X005450Y006668D01*
X005467Y006637D01*
X005480Y006604D01*
X005490Y006570D01*
X005496Y006535D01*
X005498Y006500D01*
X005496Y006465D01*
X005490Y006430D01*
X005480Y006396D01*
X005467Y006363D01*
X005450Y006332D01*
X005429Y006304D01*
X005406Y006277D01*
X005379Y006254D01*
X005351Y006233D01*
X005320Y006216D01*
X005287Y006203D01*
X005253Y006193D01*
X005218Y006187D01*
X005183Y006185D01*
X005148Y006187D01*
X005113Y006193D01*
X005079Y006203D01*
X005046Y006216D01*
X005015Y006233D01*
X004987Y006254D01*
X004960Y006277D01*
X004937Y006304D01*
X004916Y006332D01*
X004899Y006363D01*
X004886Y006396D01*
X004876Y006430D01*
X004870Y006465D01*
X004868Y006500D01*
X006868Y009500D02*
X006870Y009535D01*
X006876Y009570D01*
X006886Y009604D01*
X006899Y009637D01*
X006916Y009668D01*
X006937Y009696D01*
X006960Y009723D01*
X006987Y009746D01*
X007015Y009767D01*
X007046Y009784D01*
X007079Y009797D01*
X007113Y009807D01*
X007148Y009813D01*
X007183Y009815D01*
X007218Y009813D01*
X007253Y009807D01*
X007287Y009797D01*
X007320Y009784D01*
X007351Y009767D01*
X007379Y009746D01*
X007406Y009723D01*
X007429Y009696D01*
X007450Y009668D01*
X007467Y009637D01*
X007480Y009604D01*
X007490Y009570D01*
X007496Y009535D01*
X007498Y009500D01*
X007496Y009465D01*
X007490Y009430D01*
X007480Y009396D01*
X007467Y009363D01*
X007450Y009332D01*
X007429Y009304D01*
X007406Y009277D01*
X007379Y009254D01*
X007351Y009233D01*
X007320Y009216D01*
X007287Y009203D01*
X007253Y009193D01*
X007218Y009187D01*
X007183Y009185D01*
X007148Y009187D01*
X007113Y009193D01*
X007079Y009203D01*
X007046Y009216D01*
X007015Y009233D01*
X006987Y009254D01*
X006960Y009277D01*
X006937Y009304D01*
X006916Y009332D01*
X006899Y009363D01*
X006886Y009396D01*
X006876Y009430D01*
X006870Y009465D01*
X006868Y009500D01*
X004868Y015948D02*
X004870Y015983D01*
X004876Y016018D01*
X004886Y016052D01*
X004899Y016085D01*
X004916Y016116D01*
X004937Y016144D01*
X004960Y016171D01*
X004987Y016194D01*
X005015Y016215D01*
X005046Y016232D01*
X005079Y016245D01*
X005113Y016255D01*
X005148Y016261D01*
X005183Y016263D01*
X005218Y016261D01*
X005253Y016255D01*
X005287Y016245D01*
X005320Y016232D01*
X005351Y016215D01*
X005379Y016194D01*
X005406Y016171D01*
X005429Y016144D01*
X005450Y016116D01*
X005467Y016085D01*
X005480Y016052D01*
X005490Y016018D01*
X005496Y015983D01*
X005498Y015948D01*
X005496Y015913D01*
X005490Y015878D01*
X005480Y015844D01*
X005467Y015811D01*
X005450Y015780D01*
X005429Y015752D01*
X005406Y015725D01*
X005379Y015702D01*
X005351Y015681D01*
X005320Y015664D01*
X005287Y015651D01*
X005253Y015641D01*
X005218Y015635D01*
X005183Y015633D01*
X005148Y015635D01*
X005113Y015641D01*
X005079Y015651D01*
X005046Y015664D01*
X005015Y015681D01*
X004987Y015702D01*
X004960Y015725D01*
X004937Y015752D01*
X004916Y015780D01*
X004899Y015811D01*
X004886Y015844D01*
X004876Y015878D01*
X004870Y015913D01*
X004868Y015948D01*
X006868Y018948D02*
X006870Y018983D01*
X006876Y019018D01*
X006886Y019052D01*
X006899Y019085D01*
X006916Y019116D01*
X006937Y019144D01*
X006960Y019171D01*
X006987Y019194D01*
X007015Y019215D01*
X007046Y019232D01*
X007079Y019245D01*
X007113Y019255D01*
X007148Y019261D01*
X007183Y019263D01*
X007218Y019261D01*
X007253Y019255D01*
X007287Y019245D01*
X007320Y019232D01*
X007351Y019215D01*
X007379Y019194D01*
X007406Y019171D01*
X007429Y019144D01*
X007450Y019116D01*
X007467Y019085D01*
X007480Y019052D01*
X007490Y019018D01*
X007496Y018983D01*
X007498Y018948D01*
X007496Y018913D01*
X007490Y018878D01*
X007480Y018844D01*
X007467Y018811D01*
X007450Y018780D01*
X007429Y018752D01*
X007406Y018725D01*
X007379Y018702D01*
X007351Y018681D01*
X007320Y018664D01*
X007287Y018651D01*
X007253Y018641D01*
X007218Y018635D01*
X007183Y018633D01*
X007148Y018635D01*
X007113Y018641D01*
X007079Y018651D01*
X007046Y018664D01*
X007015Y018681D01*
X006987Y018702D01*
X006960Y018725D01*
X006937Y018752D01*
X006916Y018780D01*
X006899Y018811D01*
X006886Y018844D01*
X006876Y018878D01*
X006870Y018913D01*
X006868Y018948D01*
X017423Y015874D02*
X017425Y015924D01*
X017431Y015974D01*
X017441Y016023D01*
X017455Y016071D01*
X017472Y016118D01*
X017493Y016163D01*
X017518Y016207D01*
X017546Y016248D01*
X017578Y016287D01*
X017612Y016324D01*
X017649Y016358D01*
X017689Y016388D01*
X017731Y016415D01*
X017775Y016439D01*
X017821Y016460D01*
X017868Y016476D01*
X017916Y016489D01*
X017966Y016498D01*
X018015Y016503D01*
X018066Y016504D01*
X018116Y016501D01*
X018165Y016494D01*
X018214Y016483D01*
X018262Y016468D01*
X018308Y016450D01*
X018353Y016428D01*
X018396Y016402D01*
X018437Y016373D01*
X018476Y016341D01*
X018512Y016306D01*
X018544Y016268D01*
X018574Y016228D01*
X018601Y016185D01*
X018624Y016141D01*
X018643Y016095D01*
X018659Y016047D01*
X018671Y015998D01*
X018679Y015949D01*
X018683Y015899D01*
X018683Y015849D01*
X018679Y015799D01*
X018671Y015750D01*
X018659Y015701D01*
X018643Y015653D01*
X018624Y015607D01*
X018601Y015563D01*
X018574Y015520D01*
X018544Y015480D01*
X018512Y015442D01*
X018476Y015407D01*
X018437Y015375D01*
X018396Y015346D01*
X018353Y015320D01*
X018308Y015298D01*
X018262Y015280D01*
X018214Y015265D01*
X018165Y015254D01*
X018116Y015247D01*
X018066Y015244D01*
X018015Y015245D01*
X017966Y015250D01*
X017916Y015259D01*
X017868Y015272D01*
X017821Y015288D01*
X017775Y015309D01*
X017731Y015333D01*
X017689Y015360D01*
X017649Y015390D01*
X017612Y015424D01*
X017578Y015461D01*
X017546Y015500D01*
X017518Y015541D01*
X017493Y015585D01*
X017472Y015630D01*
X017455Y015677D01*
X017441Y015725D01*
X017431Y015774D01*
X017425Y015824D01*
X017423Y015874D01*
X023328Y015874D02*
X023330Y015924D01*
X023336Y015974D01*
X023346Y016023D01*
X023360Y016071D01*
X023377Y016118D01*
X023398Y016163D01*
X023423Y016207D01*
X023451Y016248D01*
X023483Y016287D01*
X023517Y016324D01*
X023554Y016358D01*
X023594Y016388D01*
X023636Y016415D01*
X023680Y016439D01*
X023726Y016460D01*
X023773Y016476D01*
X023821Y016489D01*
X023871Y016498D01*
X023920Y016503D01*
X023971Y016504D01*
X024021Y016501D01*
X024070Y016494D01*
X024119Y016483D01*
X024167Y016468D01*
X024213Y016450D01*
X024258Y016428D01*
X024301Y016402D01*
X024342Y016373D01*
X024381Y016341D01*
X024417Y016306D01*
X024449Y016268D01*
X024479Y016228D01*
X024506Y016185D01*
X024529Y016141D01*
X024548Y016095D01*
X024564Y016047D01*
X024576Y015998D01*
X024584Y015949D01*
X024588Y015899D01*
X024588Y015849D01*
X024584Y015799D01*
X024576Y015750D01*
X024564Y015701D01*
X024548Y015653D01*
X024529Y015607D01*
X024506Y015563D01*
X024479Y015520D01*
X024449Y015480D01*
X024417Y015442D01*
X024381Y015407D01*
X024342Y015375D01*
X024301Y015346D01*
X024258Y015320D01*
X024213Y015298D01*
X024167Y015280D01*
X024119Y015265D01*
X024070Y015254D01*
X024021Y015247D01*
X023971Y015244D01*
X023920Y015245D01*
X023871Y015250D01*
X023821Y015259D01*
X023773Y015272D01*
X023726Y015288D01*
X023680Y015309D01*
X023636Y015333D01*
X023594Y015360D01*
X023554Y015390D01*
X023517Y015424D01*
X023483Y015461D01*
X023451Y015500D01*
X023423Y015541D01*
X023398Y015585D01*
X023377Y015630D01*
X023360Y015677D01*
X023346Y015725D01*
X023336Y015774D01*
X023330Y015824D01*
X023328Y015874D01*
X032206Y011649D02*
X032208Y011678D01*
X032214Y011706D01*
X032223Y011734D01*
X032236Y011760D01*
X032253Y011783D01*
X032272Y011805D01*
X032294Y011824D01*
X032319Y011839D01*
X032345Y011852D01*
X032373Y011860D01*
X032401Y011865D01*
X032430Y011866D01*
X032459Y011863D01*
X032487Y011856D01*
X032514Y011846D01*
X032540Y011832D01*
X032563Y011815D01*
X032584Y011795D01*
X032602Y011772D01*
X032617Y011747D01*
X032628Y011720D01*
X032636Y011692D01*
X032640Y011663D01*
X032640Y011635D01*
X032636Y011606D01*
X032628Y011578D01*
X032617Y011551D01*
X032602Y011526D01*
X032584Y011503D01*
X032563Y011483D01*
X032540Y011466D01*
X032514Y011452D01*
X032487Y011442D01*
X032459Y011435D01*
X032430Y011432D01*
X032401Y011433D01*
X032373Y011438D01*
X032345Y011446D01*
X032319Y011459D01*
X032294Y011474D01*
X032272Y011493D01*
X032253Y011515D01*
X032236Y011538D01*
X032223Y011564D01*
X032214Y011592D01*
X032208Y011620D01*
X032206Y011649D01*
X032206Y010649D02*
X032208Y010678D01*
X032214Y010706D01*
X032223Y010734D01*
X032236Y010760D01*
X032253Y010783D01*
X032272Y010805D01*
X032294Y010824D01*
X032319Y010839D01*
X032345Y010852D01*
X032373Y010860D01*
X032401Y010865D01*
X032430Y010866D01*
X032459Y010863D01*
X032487Y010856D01*
X032514Y010846D01*
X032540Y010832D01*
X032563Y010815D01*
X032584Y010795D01*
X032602Y010772D01*
X032617Y010747D01*
X032628Y010720D01*
X032636Y010692D01*
X032640Y010663D01*
X032640Y010635D01*
X032636Y010606D01*
X032628Y010578D01*
X032617Y010551D01*
X032602Y010526D01*
X032584Y010503D01*
X032563Y010483D01*
X032540Y010466D01*
X032514Y010452D01*
X032487Y010442D01*
X032459Y010435D01*
X032430Y010432D01*
X032401Y010433D01*
X032373Y010438D01*
X032345Y010446D01*
X032319Y010459D01*
X032294Y010474D01*
X032272Y010493D01*
X032253Y010515D01*
X032236Y010538D01*
X032223Y010564D01*
X032214Y010592D01*
X032208Y010620D01*
X032206Y010649D01*
D11*
X030021Y010441D02*
X029313Y010441D01*
X029313Y011070D02*
X030021Y011070D01*
X030179Y013551D02*
X030179Y014259D01*
X030533Y014259D02*
X030533Y013551D01*
X031163Y013551D02*
X031163Y014259D01*
X029549Y014259D02*
X029549Y013551D01*
X026872Y008708D02*
X026163Y008708D01*
X026163Y008078D02*
X026872Y008078D01*
X024431Y008000D02*
X024431Y007212D01*
X023880Y007212D02*
X023880Y008000D01*
X021714Y008630D02*
X021714Y009338D01*
X021084Y009338D02*
X021084Y008630D01*
X020179Y009259D02*
X019470Y009259D01*
X019470Y009889D02*
X020179Y009889D01*
X018013Y009889D02*
X017305Y009889D01*
X017305Y009259D02*
X018013Y009259D01*
X018013Y008905D02*
X017305Y008905D01*
X017305Y008275D02*
X018013Y008275D01*
X018013Y007921D02*
X017305Y007921D01*
X017305Y007291D02*
X018013Y007291D01*
X018053Y006700D02*
X017265Y006700D01*
X017265Y006149D02*
X018053Y006149D01*
X019234Y005441D02*
X020809Y005441D01*
X020809Y007015D02*
X019234Y007015D01*
X015651Y006740D02*
X014943Y006740D01*
X014943Y006110D02*
X015651Y006110D01*
X011872Y010007D02*
X011872Y010716D01*
X011242Y010716D02*
X011242Y010007D01*
X010887Y010007D02*
X010887Y010716D01*
X010257Y010716D02*
X010257Y010007D01*
X012580Y011897D02*
X012698Y011897D01*
X012698Y011779D01*
X012580Y011897D01*
X012698Y011897D02*
X014352Y011897D01*
X013880Y011464D02*
X013171Y011464D01*
X013171Y010834D02*
X013880Y010834D01*
X015769Y011976D02*
X015769Y012685D01*
X016399Y012685D02*
X016399Y011976D01*
X014352Y013944D02*
X012698Y013944D01*
X012462Y015126D02*
X012462Y015834D01*
X011832Y015834D02*
X011832Y015126D01*
X011478Y015126D02*
X011478Y015834D01*
X010848Y015834D02*
X010848Y015126D01*
X010494Y015126D02*
X010494Y015834D01*
X009864Y015834D02*
X009864Y015126D01*
X007541Y016504D02*
X007541Y017212D01*
X006911Y017212D02*
X006911Y016504D01*
X015769Y024378D02*
X015769Y025086D01*
X016399Y025086D02*
X016399Y024378D01*
X017502Y022685D02*
X018210Y022685D01*
X018210Y022055D02*
X017502Y022055D01*
X017502Y021700D02*
X018210Y021700D01*
X018210Y021070D02*
X017502Y021070D01*
X019667Y022055D02*
X020376Y022055D01*
X020376Y022685D02*
X019667Y022685D01*
X020454Y020716D02*
X021163Y020716D01*
X021163Y020086D02*
X020454Y020086D01*
X020454Y019732D02*
X021163Y019732D01*
X021163Y019102D02*
X020454Y019102D01*
X022620Y019102D02*
X023328Y019102D01*
X023328Y019732D02*
X022620Y019732D01*
X026557Y021070D02*
X027265Y021070D01*
X027265Y021700D02*
X026557Y021700D01*
X026557Y022448D02*
X027265Y022448D01*
X027265Y023078D02*
X026557Y023078D01*
X029549Y019771D02*
X029549Y019063D01*
X030179Y019063D02*
X030179Y019771D01*
X030533Y019771D02*
X030533Y019063D01*
X031163Y019063D02*
X031163Y019771D01*
X019785Y026779D02*
X019076Y026779D01*
X019076Y027409D02*
X019785Y027409D01*
X017620Y027409D02*
X016911Y027409D01*
X016911Y027763D02*
X017620Y027763D01*
X017620Y028393D02*
X016911Y028393D01*
X016911Y026779D02*
X017620Y026779D01*
X007541Y007567D02*
X007541Y006858D01*
X006911Y006858D02*
X006911Y007567D01*
X010061Y006385D02*
X010061Y005677D01*
X010691Y005677D02*
X010691Y006385D01*
D12*
X010990Y006175D02*
X010990Y005895D01*
X011271Y006175D01*
X011341Y006175D01*
X011411Y006105D01*
X011411Y005965D01*
X011341Y005895D01*
X011341Y005715D02*
X011201Y005715D01*
X011131Y005645D01*
X011131Y005435D01*
X011131Y005575D02*
X010990Y005715D01*
X010990Y005435D02*
X011411Y005435D01*
X011411Y005645D01*
X011341Y005715D01*
X014604Y005740D02*
X014604Y005670D01*
X014674Y005600D01*
X014814Y005600D01*
X014884Y005670D01*
X014884Y005740D01*
X014814Y005810D01*
X014674Y005810D01*
X014604Y005740D01*
X014674Y005600D02*
X014604Y005530D01*
X014604Y005460D01*
X014674Y005390D01*
X014814Y005390D01*
X014884Y005460D01*
X014884Y005530D01*
X014814Y005600D01*
X015064Y005600D02*
X015134Y005530D01*
X015344Y005530D01*
X015204Y005530D02*
X015064Y005390D01*
X015064Y005600D02*
X015064Y005740D01*
X015134Y005810D01*
X015344Y005810D01*
X015344Y005390D01*
X016776Y005571D02*
X017056Y005571D01*
X016916Y005571D02*
X016916Y005991D01*
X017056Y005851D01*
X017236Y005921D02*
X017306Y005991D01*
X017516Y005991D01*
X017516Y005571D01*
X017306Y005571D01*
X017236Y005641D01*
X017236Y005921D01*
X016414Y007236D02*
X016274Y007236D01*
X016204Y007307D01*
X016023Y007307D02*
X015953Y007236D01*
X015813Y007236D01*
X015743Y007307D01*
X015743Y007587D01*
X015813Y007657D01*
X015953Y007657D01*
X016023Y007587D01*
X016023Y007517D01*
X015953Y007447D01*
X015743Y007447D01*
X016204Y007587D02*
X016274Y007657D01*
X016414Y007657D01*
X016484Y007587D01*
X016484Y007307D01*
X016414Y007236D01*
X016484Y008221D02*
X016484Y008641D01*
X016274Y008641D01*
X016204Y008571D01*
X016204Y008431D01*
X016274Y008361D01*
X016484Y008361D01*
X016344Y008361D02*
X016204Y008221D01*
X016023Y008291D02*
X015953Y008221D01*
X015813Y008221D01*
X015743Y008291D01*
X015743Y008361D01*
X015813Y008431D01*
X016023Y008431D01*
X016023Y008291D01*
X016023Y008431D02*
X015883Y008571D01*
X015743Y008641D01*
X015813Y009205D02*
X015743Y009275D01*
X015743Y009345D01*
X015813Y009415D01*
X015953Y009415D01*
X016023Y009485D01*
X016023Y009555D01*
X015953Y009625D01*
X015813Y009625D01*
X015743Y009555D01*
X015743Y009485D01*
X015813Y009415D01*
X015953Y009415D02*
X016023Y009345D01*
X016023Y009275D01*
X015953Y009205D01*
X015813Y009205D01*
X016204Y009275D02*
X016274Y009205D01*
X016414Y009205D01*
X016484Y009275D01*
X016484Y009555D01*
X016414Y009625D01*
X016274Y009625D01*
X016204Y009555D01*
X014515Y010259D02*
X014445Y010189D01*
X014305Y010189D01*
X014235Y010259D01*
X014055Y010259D02*
X013985Y010189D01*
X013845Y010189D01*
X013775Y010259D01*
X013775Y010329D01*
X013845Y010399D01*
X014055Y010399D01*
X014055Y010259D01*
X014055Y010399D02*
X013915Y010540D01*
X013775Y010610D01*
X014235Y010540D02*
X014305Y010610D01*
X014445Y010610D01*
X014515Y010540D01*
X014515Y010259D01*
X012517Y010197D02*
X012517Y010057D01*
X012447Y009987D01*
X012447Y009807D02*
X012517Y009737D01*
X012517Y009597D01*
X012447Y009527D01*
X012167Y009527D01*
X012097Y009597D01*
X012097Y009737D01*
X012167Y009807D01*
X012097Y009987D02*
X012377Y010267D01*
X012447Y010267D01*
X012517Y010197D01*
X012097Y010267D02*
X012097Y009987D01*
X010675Y011495D02*
X010395Y011495D01*
X010325Y011565D01*
X010325Y011705D01*
X010395Y011776D01*
X010325Y011956D02*
X010325Y012236D01*
X010325Y012096D02*
X010745Y012096D01*
X010605Y011956D01*
X010675Y011776D02*
X010745Y011705D01*
X010745Y011565D01*
X010675Y011495D01*
X010667Y013506D02*
X010597Y013576D01*
X010597Y013716D01*
X010667Y013786D01*
X010807Y013966D02*
X010807Y014246D01*
X011017Y014176D02*
X010807Y013966D01*
X010947Y013786D02*
X011017Y013716D01*
X011017Y013576D01*
X010947Y013506D01*
X010667Y013506D01*
X010230Y013506D02*
X010230Y013716D01*
X010160Y013786D01*
X010019Y013786D01*
X009949Y013716D01*
X009949Y013506D01*
X009809Y013506D02*
X010230Y013506D01*
X009949Y013646D02*
X009809Y013786D01*
X010019Y013966D02*
X010019Y014246D01*
X009809Y014176D02*
X010230Y014176D01*
X010019Y013966D01*
X010597Y014176D02*
X011017Y014176D01*
X012762Y015150D02*
X012762Y015291D01*
X012832Y015361D01*
X012832Y015541D02*
X012762Y015611D01*
X012762Y015751D01*
X012832Y015821D01*
X012902Y015821D01*
X012972Y015751D01*
X012972Y015681D01*
X012972Y015751D02*
X013042Y015821D01*
X013112Y015821D01*
X013182Y015751D01*
X013182Y015611D01*
X013112Y015541D01*
X013112Y015361D02*
X013182Y015291D01*
X013182Y015150D01*
X013112Y015080D01*
X012832Y015080D01*
X012762Y015150D01*
X013343Y014610D02*
X013413Y014680D01*
X013553Y014680D01*
X013623Y014610D01*
X013804Y014610D02*
X013874Y014680D01*
X014014Y014680D01*
X014084Y014610D01*
X014084Y014330D01*
X014014Y014260D01*
X013874Y014260D01*
X013804Y014330D01*
X013623Y014260D02*
X013343Y014540D01*
X013343Y014610D01*
X013343Y014260D02*
X013623Y014260D01*
X014251Y014260D02*
X014391Y014260D01*
X014321Y014260D02*
X014321Y014680D01*
X014391Y014680D02*
X014251Y014680D01*
X016769Y011998D02*
X017049Y012278D01*
X017119Y012278D01*
X017119Y011998D01*
X017049Y011817D02*
X017119Y011747D01*
X017119Y011607D01*
X017049Y011537D01*
X016769Y011537D01*
X016699Y011607D01*
X016699Y011747D01*
X016769Y011817D01*
X016769Y011998D02*
X016699Y011998D01*
X019483Y010610D02*
X019483Y010540D01*
X019764Y010259D01*
X019764Y010189D01*
X019944Y010189D02*
X020084Y010329D01*
X020014Y010329D02*
X020224Y010329D01*
X020224Y010189D02*
X020224Y010610D01*
X020014Y010610D01*
X019944Y010540D01*
X019944Y010399D01*
X020014Y010329D01*
X019764Y010610D02*
X019483Y010610D01*
X019509Y008570D02*
X020139Y008570D01*
X020139Y008177D02*
X020139Y007822D01*
X020139Y007429D02*
X019509Y007429D01*
X020861Y007343D02*
X021142Y007343D01*
X021002Y007343D02*
X021002Y007763D01*
X021142Y007623D01*
X021322Y007693D02*
X021392Y007763D01*
X021532Y007763D01*
X021602Y007693D01*
X021602Y007413D01*
X021532Y007343D01*
X021392Y007343D01*
X021322Y007413D01*
X021769Y007343D02*
X021909Y007343D01*
X021839Y007343D02*
X021839Y007763D01*
X021909Y007763D02*
X021769Y007763D01*
X022009Y008739D02*
X021939Y008809D01*
X021939Y008950D01*
X022009Y009020D01*
X022009Y009200D02*
X021939Y009270D01*
X021939Y009410D01*
X022009Y009480D01*
X022149Y009480D01*
X022219Y009410D01*
X022219Y009340D01*
X022149Y009200D01*
X022360Y009200D01*
X022360Y009480D01*
X022290Y009020D02*
X022360Y008950D01*
X022360Y008809D01*
X022290Y008739D01*
X022009Y008739D01*
X023301Y007829D02*
X023722Y007829D01*
X023512Y007619D01*
X023512Y007899D01*
X023652Y007438D02*
X023371Y007438D01*
X023301Y007368D01*
X023301Y007158D01*
X023722Y007158D01*
X023722Y007368D01*
X023652Y007438D01*
X025691Y008933D02*
X025971Y008933D01*
X025831Y008933D02*
X025831Y009354D01*
X025971Y009214D01*
X026151Y009284D02*
X026221Y009354D01*
X026361Y009354D01*
X026432Y009284D01*
X026432Y009003D01*
X026361Y008933D01*
X026221Y008933D01*
X026151Y009003D01*
X026612Y009354D02*
X026892Y009354D01*
X026752Y009354D02*
X026752Y008933D01*
X027072Y009143D02*
X027072Y009284D01*
X027142Y009354D01*
X027352Y009354D01*
X027352Y008933D01*
X027352Y009073D02*
X027142Y009073D01*
X027072Y009143D01*
X029761Y011366D02*
X029831Y011296D01*
X029971Y011296D01*
X030042Y011366D01*
X030042Y011506D02*
X029901Y011576D01*
X029831Y011576D01*
X029761Y011506D01*
X029761Y011366D01*
X030042Y011506D02*
X030042Y011716D01*
X029761Y011716D01*
X030222Y011646D02*
X030222Y011506D01*
X030292Y011436D01*
X030502Y011436D01*
X030362Y011436D02*
X030222Y011296D01*
X030502Y011296D02*
X030502Y011716D01*
X030292Y011716D01*
X030222Y011646D01*
X029324Y012848D02*
X028904Y012848D01*
X029044Y012848D02*
X029044Y013059D01*
X029114Y013129D01*
X029254Y013129D01*
X029324Y013059D01*
X029324Y012848D01*
X029044Y012989D02*
X028904Y013129D01*
X028904Y013309D02*
X028904Y013589D01*
X028904Y013449D02*
X029324Y013449D01*
X029184Y013309D01*
X029114Y013769D02*
X029114Y014049D01*
X028904Y013979D02*
X029324Y013979D01*
X029114Y013769D01*
X031388Y013794D02*
X031668Y014074D01*
X031738Y014074D01*
X031808Y014004D01*
X031808Y013864D01*
X031738Y013794D01*
X031808Y013474D02*
X031388Y013474D01*
X031388Y013334D02*
X031388Y013614D01*
X031388Y013794D02*
X031388Y014074D01*
X031808Y013474D02*
X031668Y013334D01*
X031598Y013154D02*
X031528Y013083D01*
X031528Y012873D01*
X031388Y012873D02*
X031808Y012873D01*
X031808Y013083D01*
X031738Y013154D01*
X031598Y013154D01*
X031528Y013013D02*
X031388Y013154D01*
X031388Y018976D02*
X031808Y018976D01*
X031808Y019186D01*
X031738Y019256D01*
X031598Y019256D01*
X031528Y019186D01*
X031528Y018976D01*
X031528Y019116D02*
X031388Y019256D01*
X031388Y019436D02*
X031388Y019716D01*
X031388Y019576D02*
X031808Y019576D01*
X031668Y019436D01*
X031668Y019896D02*
X031808Y020037D01*
X031388Y020037D01*
X031388Y020177D02*
X031388Y019896D01*
X029324Y019748D02*
X028904Y019748D01*
X028904Y019608D02*
X028904Y019888D01*
X028974Y020068D02*
X028904Y020138D01*
X028904Y020279D01*
X028974Y020349D01*
X029044Y020349D01*
X029114Y020279D01*
X029114Y020209D01*
X029114Y020279D02*
X029184Y020349D01*
X029254Y020349D01*
X029324Y020279D01*
X029324Y020138D01*
X029254Y020068D01*
X029324Y019748D02*
X029184Y019608D01*
X029114Y019428D02*
X029044Y019358D01*
X029044Y019148D01*
X029044Y019288D02*
X028904Y019428D01*
X029114Y019428D02*
X029254Y019428D01*
X029324Y019358D01*
X029324Y019148D01*
X028904Y019148D01*
X027676Y020351D02*
X027746Y020421D01*
X027746Y020701D01*
X027676Y020771D01*
X027536Y020771D01*
X027466Y020701D01*
X027286Y020631D02*
X027146Y020771D01*
X027146Y020351D01*
X027286Y020351D02*
X027005Y020351D01*
X026825Y020421D02*
X026755Y020351D01*
X026615Y020351D01*
X026545Y020421D01*
X026545Y020491D01*
X026615Y020561D01*
X026685Y020561D01*
X026615Y020561D02*
X026545Y020631D01*
X026545Y020701D01*
X026615Y020771D01*
X026755Y020771D01*
X026825Y020701D01*
X027466Y020421D02*
X027536Y020351D01*
X027676Y020351D01*
X027676Y023303D02*
X027536Y023303D01*
X027466Y023373D01*
X027286Y023303D02*
X027005Y023303D01*
X027146Y023303D02*
X027146Y023724D01*
X027286Y023584D01*
X027466Y023654D02*
X027536Y023724D01*
X027676Y023724D01*
X027746Y023654D01*
X027746Y023373D01*
X027676Y023303D01*
X026825Y023303D02*
X026545Y023584D01*
X026545Y023654D01*
X026615Y023724D01*
X026755Y023724D01*
X026825Y023654D01*
X026825Y023303D02*
X026545Y023303D01*
X023809Y018802D02*
X023599Y018802D01*
X023529Y018732D01*
X023529Y018592D01*
X023599Y018522D01*
X023809Y018522D01*
X023809Y018382D02*
X023809Y018802D01*
X023669Y018522D02*
X023529Y018382D01*
X023349Y018452D02*
X023279Y018382D01*
X023138Y018382D01*
X023068Y018452D01*
X023068Y018732D01*
X023138Y018802D01*
X023279Y018802D01*
X023349Y018732D01*
X023349Y018662D01*
X023279Y018592D01*
X023068Y018592D01*
X021644Y018522D02*
X021433Y018522D01*
X021363Y018592D01*
X021363Y018732D01*
X021433Y018802D01*
X021644Y018802D01*
X021644Y018382D01*
X021504Y018522D02*
X021363Y018382D01*
X021183Y018382D02*
X020903Y018382D01*
X021043Y018382D02*
X021043Y018802D01*
X021183Y018662D01*
X020723Y018732D02*
X020723Y018452D01*
X020443Y018732D01*
X020443Y018452D01*
X020513Y018382D01*
X020653Y018382D01*
X020723Y018452D01*
X020723Y018732D02*
X020653Y018802D01*
X020513Y018802D01*
X020443Y018732D01*
X020513Y020941D02*
X020653Y020941D01*
X020723Y021011D01*
X020443Y021291D01*
X020443Y021011D01*
X020513Y020941D01*
X020723Y021011D02*
X020723Y021291D01*
X020653Y021362D01*
X020513Y021362D01*
X020443Y021291D01*
X020903Y020941D02*
X021183Y020941D01*
X021043Y020941D02*
X021043Y021362D01*
X021183Y021221D01*
X021363Y021291D02*
X021433Y021362D01*
X021574Y021362D01*
X021644Y021291D01*
X021644Y021011D01*
X021574Y020941D01*
X021433Y020941D01*
X021363Y021011D01*
X020856Y022910D02*
X020856Y023330D01*
X020646Y023330D01*
X020576Y023260D01*
X020576Y023120D01*
X020646Y023050D01*
X020856Y023050D01*
X020716Y023050D02*
X020576Y022910D01*
X020396Y022910D02*
X020116Y022910D01*
X020256Y022910D02*
X020256Y023330D01*
X020396Y023190D01*
X019935Y023120D02*
X019935Y022980D01*
X019865Y022910D01*
X019725Y022910D01*
X019655Y022980D01*
X019655Y023050D01*
X019725Y023120D01*
X019935Y023120D01*
X019795Y023260D01*
X019655Y023330D01*
X019522Y023900D02*
X019522Y024041D01*
X019522Y023971D02*
X019102Y023971D01*
X019102Y024041D02*
X019102Y023900D01*
X018801Y023984D02*
X018801Y025283D01*
X018801Y025480D01*
X016911Y025480D01*
X016911Y025283D01*
X018801Y025283D01*
X019172Y024948D02*
X019102Y024878D01*
X019102Y024738D01*
X019172Y024668D01*
X019172Y024488D02*
X019102Y024418D01*
X019102Y024277D01*
X019172Y024207D01*
X019452Y024207D01*
X019522Y024277D01*
X019522Y024418D01*
X019452Y024488D01*
X019452Y024668D02*
X019522Y024738D01*
X019522Y024878D01*
X019452Y024948D01*
X019382Y024948D01*
X019312Y024878D01*
X019242Y024948D01*
X019172Y024948D01*
X019312Y024878D02*
X019312Y024808D01*
X018801Y023984D02*
X016911Y023984D01*
X016911Y025283D01*
X015470Y025155D02*
X015049Y025155D01*
X015049Y025015D02*
X015049Y025295D01*
X015330Y025015D02*
X015470Y025155D01*
X015049Y024834D02*
X015049Y024554D01*
X015049Y024694D02*
X015470Y024694D01*
X015330Y024554D01*
X015400Y024374D02*
X015470Y024304D01*
X015470Y024164D01*
X015400Y024094D01*
X015120Y024094D01*
X015049Y024164D01*
X015049Y024304D01*
X015120Y024374D01*
X015521Y022543D02*
X015802Y022543D01*
X015802Y022332D01*
X015661Y022403D01*
X015591Y022403D01*
X015521Y022332D01*
X015521Y022192D01*
X015591Y022122D01*
X015732Y022122D01*
X015802Y022192D01*
X015982Y022122D02*
X016262Y022122D01*
X016122Y022122D02*
X016122Y022543D01*
X016262Y022403D01*
X016442Y022473D02*
X016512Y022543D01*
X016652Y022543D01*
X016722Y022473D01*
X016722Y022192D01*
X016652Y022122D01*
X016512Y022122D01*
X016442Y022192D01*
X016512Y021558D02*
X016442Y021488D01*
X016442Y021348D01*
X016512Y021278D01*
X016722Y021278D01*
X016582Y021278D02*
X016442Y021138D01*
X016262Y021138D02*
X015982Y021138D01*
X016122Y021138D02*
X016122Y021558D01*
X016262Y021418D01*
X016512Y021558D02*
X016722Y021558D01*
X016722Y021138D01*
X016634Y020432D02*
X016564Y020432D01*
X016494Y020362D01*
X016424Y020432D01*
X016354Y020432D01*
X016284Y020362D01*
X016284Y020222D01*
X016354Y020152D01*
X016354Y019971D02*
X016634Y019971D01*
X016704Y019901D01*
X016704Y019691D01*
X016284Y019691D01*
X016284Y019901D01*
X016354Y019971D01*
X016634Y020152D02*
X016704Y020222D01*
X016704Y020362D01*
X016634Y020432D01*
X016494Y020362D02*
X016494Y020292D01*
X015732Y021138D02*
X015802Y021208D01*
X015802Y021278D01*
X015732Y021348D01*
X015591Y021348D01*
X015521Y021278D01*
X015521Y021208D01*
X015591Y021138D01*
X015732Y021138D01*
X015732Y021348D02*
X015802Y021418D01*
X015802Y021488D01*
X015732Y021558D01*
X015591Y021558D01*
X015521Y021488D01*
X015521Y021418D01*
X015591Y021348D01*
X015531Y026650D02*
X015531Y027070D01*
X015671Y026930D01*
X015852Y027000D02*
X015922Y027070D01*
X016062Y027070D01*
X016132Y027000D01*
X016132Y026720D01*
X016062Y026650D01*
X015922Y026650D01*
X015852Y026720D01*
X015671Y026650D02*
X015391Y026650D01*
X015211Y026860D02*
X014931Y026860D01*
X015001Y026650D02*
X015001Y027070D01*
X015211Y026860D01*
X015211Y027634D02*
X015211Y027704D01*
X014931Y027984D01*
X014931Y028054D01*
X015211Y028054D01*
X015531Y028054D02*
X015531Y027634D01*
X015671Y027634D02*
X015391Y027634D01*
X015671Y027914D02*
X015531Y028054D01*
X015852Y027984D02*
X015852Y027844D01*
X015922Y027774D01*
X016132Y027774D01*
X016132Y027634D02*
X016132Y028054D01*
X015922Y028054D01*
X015852Y027984D01*
X015992Y027774D02*
X015852Y027634D01*
X018252Y028943D02*
X018252Y029153D01*
X018322Y029223D01*
X018603Y029223D01*
X018673Y029153D01*
X018673Y028943D01*
X018252Y028943D01*
X018252Y029404D02*
X018532Y029684D01*
X018603Y029684D01*
X018673Y029614D01*
X018673Y029474D01*
X018603Y029404D01*
X018252Y029404D02*
X018252Y029684D01*
X019065Y028054D02*
X019345Y028054D01*
X019345Y027844D01*
X019205Y027914D01*
X019135Y027914D01*
X019065Y027844D01*
X019065Y027704D01*
X019135Y027634D01*
X019275Y027634D01*
X019345Y027704D01*
X019525Y027634D02*
X019805Y027634D01*
X019665Y027634D02*
X019665Y028054D01*
X019805Y027914D01*
X019985Y027844D02*
X020056Y027774D01*
X020266Y027774D01*
X020266Y027634D02*
X020266Y028054D01*
X020056Y028054D01*
X019985Y027984D01*
X019985Y027844D01*
X020126Y027774D02*
X019985Y027634D01*
X006686Y017523D02*
X006616Y017593D01*
X006546Y017593D01*
X006476Y017523D01*
X006406Y017593D01*
X006336Y017593D01*
X006266Y017523D01*
X006266Y017383D01*
X006336Y017312D01*
X006266Y017132D02*
X006406Y016992D01*
X006406Y017062D02*
X006406Y016852D01*
X006266Y016852D02*
X006686Y016852D01*
X006686Y017062D01*
X006616Y017132D01*
X006476Y017132D01*
X006406Y017062D01*
X006616Y017312D02*
X006686Y017383D01*
X006686Y017523D01*
X006476Y017523D02*
X006476Y017453D01*
X006266Y007947D02*
X006266Y007667D01*
X006266Y007807D02*
X006686Y007807D01*
X006546Y007667D01*
X006616Y007487D02*
X006476Y007487D01*
X006406Y007417D01*
X006406Y007206D01*
X006266Y007206D02*
X006686Y007206D01*
X006686Y007417D01*
X006616Y007487D01*
X006406Y007347D02*
X006266Y007487D01*
D13*
X017106Y025044D03*
D14*
X017205Y028699D02*
X017525Y028699D01*
X017525Y028919D01*
X017525Y029599D02*
X017525Y029819D01*
X017205Y029819D01*
X017796Y020764D02*
X018116Y020764D01*
X018116Y020544D01*
X018116Y019864D02*
X018116Y019644D01*
X017796Y019644D01*
D15*
X017403Y006425D03*
D16*
X024155Y007862D03*
M02*
